<svg width="50" height="50" viewBox="0 0 50 50" fill="none" xmlns="http://www.w3.org/2000/svg">
<g clip-path="url(#clip0_1402_7956)">
<path d="M47.218 35.924C47.1806 35.9239 47.1437 35.9153 47.11 35.899L44.24 34.514C44.1807 34.4853 44.1351 34.4342 44.1132 34.3721C44.0912 34.3099 44.0948 34.2416 44.123 34.182C44.574 33.2295 44.9602 32.2476 45.279 31.243C45.299 31.1802 45.343 31.1278 45.4014 31.0973C45.4599 31.0668 45.528 31.0606 45.591 31.08L47.111 31.55C47.1429 31.5598 47.1725 31.576 47.1981 31.5975C47.2236 31.619 47.2446 31.6454 47.2598 31.6751C47.275 31.7048 47.2841 31.7373 47.2865 31.7706C47.2889 31.8039 47.2847 31.8374 47.274 31.869L47.174 32.182C47.054 32.543 46.931 32.914 46.789 33.282L47.804 33.682C47.957 33.288 48.093 32.882 48.224 32.482L48.324 32.187L48.394 31.942C48.514 31.523 48.638 31.093 48.738 30.662L45.879 30.008C45.8465 30.0006 45.8158 29.9868 45.7887 29.9674C45.7616 29.948 45.7387 29.9233 45.7212 29.8949C45.7038 29.8665 45.6923 29.8349 45.6872 29.8019C45.6822 29.769 45.6838 29.7353 45.692 29.703C45.792 29.317 45.859 28.913 45.926 28.522C45.948 28.396 45.969 28.271 45.992 28.146C46.0053 28.0387 46.019 27.9314 46.033 27.824C46.086 27.413 46.141 26.988 46.164 26.57C46.1686 26.5051 46.1984 26.4446 46.2469 26.4012C46.2955 26.3579 46.359 26.3352 46.424 26.338L48.01 26.457C48.0753 26.4619 48.136 26.4921 48.1792 26.5413C48.2224 26.5905 48.2446 26.6547 48.241 26.72C48.214 27.202 48.152 27.684 48.092 28.15L48.084 28.213L49.166 28.376C49.3167 27.2488 49.3965 26.1132 49.405 24.976C49.405 24.9097 49.4313 24.8461 49.4782 24.7993C49.5251 24.7524 49.5887 24.726 49.655 24.726C49.7213 24.726 49.7849 24.7524 49.8318 24.7993C49.8786 24.8461 49.905 24.9097 49.905 24.976C49.8956 26.2186 49.802 27.4591 49.625 28.689C49.6202 28.7216 49.6091 28.753 49.5921 28.7812C49.5752 28.8095 49.5529 28.8342 49.5264 28.8538C49.4999 28.8734 49.4698 28.8876 49.4378 28.8955C49.4058 28.9034 49.3726 28.905 49.34 28.9L47.767 28.663C47.7025 28.6533 47.6444 28.6188 47.6049 28.5669C47.5655 28.515 47.548 28.4497 47.556 28.385C47.5687 28.2823 47.5817 28.18 47.595 28.078C47.644 27.701 47.695 27.314 47.724 26.929L46.637 26.847C46.609 27.197 46.564 27.547 46.52 27.883C46.506 27.9917 46.492 28.1003 46.478 28.209V28.222C46.455 28.348 46.434 28.475 46.412 28.601C46.357 28.919 46.301 29.246 46.229 29.571L49.085 30.224C49.1171 30.2312 49.1476 30.2447 49.1745 30.2637C49.2014 30.2827 49.2243 30.3068 49.2419 30.3347C49.2594 30.3626 49.2713 30.3937 49.2768 30.4261C49.2823 30.4586 49.2814 30.4919 49.274 30.524C49.162 31.051 49.012 31.573 48.867 32.078L48.796 32.328V32.339L48.696 32.639C48.536 33.12 48.371 33.618 48.172 34.098C48.1469 34.1587 48.099 34.207 48.0386 34.2327C47.9781 34.2583 47.91 34.2591 47.849 34.235L46.369 33.652C46.338 33.6398 46.3098 33.6216 46.286 33.5983C46.2622 33.5751 46.2433 33.5474 46.2304 33.5167C46.2174 33.4861 46.2107 33.4532 46.2107 33.4199C46.2106 33.3867 46.2172 33.3537 46.23 33.323C46.406 32.901 46.554 32.456 46.697 32.023L46.721 31.951L45.681 31.629C45.3962 32.494 45.0623 33.342 44.681 34.169L47.329 35.447C47.3799 35.4717 47.421 35.5129 47.4454 35.5639C47.4699 35.6149 47.4763 35.6727 47.4637 35.7279C47.451 35.7831 47.42 35.8323 47.3758 35.8676C47.3315 35.9028 47.2766 35.922 47.22 35.922L47.218 35.924Z" fill="#C98D00"/>
<path d="M40.358 44.512C40.3197 44.5127 40.2817 44.5046 40.247 44.4883C40.2124 44.472 40.1819 44.448 40.158 44.418L38.17 41.9281C38.1289 41.8765 38.1098 41.8107 38.1169 41.7452C38.1241 41.6796 38.1568 41.6196 38.208 41.578C39.0331 40.9244 39.8073 40.209 40.524 39.438C40.5462 39.4137 40.5731 39.394 40.6029 39.3801C40.6328 39.3662 40.6651 39.3584 40.698 39.357C40.7311 39.3554 40.7642 39.3605 40.7953 39.372C40.8264 39.3835 40.8549 39.4012 40.879 39.424L42.044 40.507C42.0682 40.5296 42.0878 40.5568 42.1014 40.587C42.1151 40.6172 42.1226 40.6498 42.1235 40.6829C42.1244 40.7161 42.1188 40.7491 42.1068 40.78C42.0949 40.8109 42.0769 40.8391 42.054 40.8631L41.454 41.4881L41.446 41.496L40.999 41.922L41.743 42.722C42.5076 41.9992 43.2241 41.2273 43.888 40.411L41.601 38.58C41.5752 38.5594 41.5537 38.534 41.5379 38.505C41.522 38.4761 41.512 38.4443 41.5084 38.4115C41.5049 38.3786 41.5079 38.3455 41.5173 38.3138C41.5266 38.2821 41.5422 38.2526 41.563 38.227C42.2292 37.4017 42.8291 36.525 43.357 35.6051C43.3902 35.5479 43.4448 35.5061 43.5087 35.4891C43.5726 35.472 43.6407 35.481 43.698 35.5141L45.075 36.314C45.1318 36.3471 45.1733 36.4012 45.1906 36.4647C45.2078 36.5281 45.1993 36.5958 45.167 36.653C44.993 36.962 44.851 37.196 44.709 37.409C44.66 37.484 44.609 37.562 44.561 37.64C44.501 37.735 44.44 37.8311 44.376 37.9281L45.276 38.543C45.9064 37.5964 46.4743 36.6096 46.976 35.589C46.9895 35.5581 47.0091 35.5303 47.0336 35.5072C47.0582 35.484 47.0871 35.4661 47.1188 35.4545C47.1504 35.4428 47.1841 35.4378 47.2177 35.4395C47.2514 35.4412 47.2844 35.4497 47.3147 35.4644C47.345 35.4792 47.372 35.5 47.394 35.5255C47.4161 35.5509 47.4328 35.5806 47.4431 35.6127C47.4534 35.6448 47.4571 35.6787 47.454 35.7122C47.4509 35.7458 47.441 35.7783 47.425 35.808C46.8768 36.9246 46.2513 38.0016 45.553 39.031C45.5345 39.0583 45.5108 39.0816 45.4833 39.0996C45.4558 39.1177 45.425 39.1302 45.3927 39.1363C45.3604 39.1424 45.3271 39.1421 45.2949 39.1354C45.2627 39.1287 45.2322 39.1156 45.205 39.097L43.892 38.197C43.8646 38.1783 43.8412 38.1543 43.8231 38.1265C43.8051 38.0986 43.7928 38.0674 43.7869 38.0347C43.781 38.0021 43.7817 37.9686 43.789 37.9362C43.7962 37.9038 43.8098 37.8731 43.829 37.846C43.938 37.693 44.042 37.529 44.143 37.37C44.194 37.29 44.243 37.2111 44.296 37.1311C44.396 36.9781 44.496 36.816 44.613 36.619L43.666 36.07C43.1994 36.8619 42.6802 37.6216 42.112 38.344L44.401 40.176C44.4266 40.1966 44.448 40.2221 44.4638 40.2509C44.4796 40.2798 44.4895 40.3114 44.493 40.3441C44.4966 40.3768 44.4936 40.4099 44.4843 40.4415C44.4751 40.473 44.4597 40.5024 44.439 40.528C43.6631 41.5002 42.8147 42.4122 41.901 43.2561C41.8522 43.3005 41.7878 43.3239 41.7219 43.3211C41.656 43.3183 41.5938 43.2895 41.549 43.241L40.468 42.0741C40.4233 42.0258 40.3994 41.9619 40.4015 41.8963C40.4035 41.8306 40.4314 41.7684 40.479 41.723L41.1 41.1311L41.519 40.693L40.719 39.953C40.0925 40.6127 39.4245 41.2316 38.719 41.806L40.553 44.106C40.5826 44.1431 40.6011 44.1879 40.6062 44.2351C40.6113 44.2823 40.6029 44.33 40.5819 44.3726C40.561 44.4152 40.5283 44.4508 40.4877 44.4755C40.4472 44.5002 40.4005 44.5129 40.353 44.512H40.358Z" fill="#C98D00"/>
<path d="M30.45 49.286C30.3932 49.286 30.3381 49.2667 30.2938 49.2313C30.2495 49.1959 30.2185 49.1464 30.206 49.091L29.5 45.984C29.4926 45.9518 29.4917 45.9185 29.4973 45.886C29.5028 45.8534 29.5148 45.8223 29.5325 45.7944C29.5501 45.7665 29.5732 45.7424 29.6002 45.7234C29.6272 45.7045 29.6577 45.6911 29.69 45.684C30.7168 45.4549 31.7239 45.1453 32.702 44.758C32.7637 44.7337 32.8324 44.735 32.8932 44.7615C32.9539 44.7879 33.0017 44.8373 33.026 44.899L33.606 46.38C33.6298 46.4409 33.6288 46.5088 33.6032 46.569C33.5776 46.6292 33.5294 46.6769 33.469 46.702C33.017 46.89 32.55 47.043 32.097 47.191L32.051 47.206L32.372 48.251C33.3748 47.9268 34.3572 47.5427 35.314 47.101L34.044 44.462C34.0153 44.4026 34.0113 44.3342 34.0329 44.2718C34.0544 44.2094 34.0998 44.1581 34.159 44.129C35.113 43.6619 36.0338 43.13 36.915 42.537C36.9698 42.5002 37.037 42.4866 37.1018 42.4991C37.1666 42.5117 37.2239 42.5494 37.261 42.604L38.161 43.919C38.1797 43.9465 38.1927 43.9774 38.1993 44.01C38.2059 44.0426 38.206 44.0761 38.1995 44.1087C38.193 44.1413 38.18 44.1722 38.1614 44.1998C38.1428 44.2273 38.1188 44.2509 38.091 44.269L37.875 44.41C37.537 44.631 37.19 44.859 36.831 45.068L37.375 46.01C38.3541 45.4357 39.2899 44.7907 40.175 44.08C40.2267 44.0398 40.2922 44.0215 40.3572 44.029C40.4223 44.0366 40.4818 44.0694 40.523 44.1203C40.5641 44.1713 40.5836 44.2364 40.5773 44.3016C40.5709 44.3668 40.5392 44.4269 40.489 44.469C39.5174 45.248 38.4867 45.9502 37.406 46.569C37.3486 46.602 37.2804 46.6107 37.2165 46.5935C37.1525 46.5762 37.0981 46.5343 37.065 46.477L36.265 45.099C36.2485 45.0699 36.238 45.0379 36.2342 45.0047C36.2303 44.9716 36.2331 44.9379 36.2424 44.9059C36.2517 44.8738 36.2674 44.844 36.2884 44.818C36.3095 44.7921 36.3355 44.7707 36.365 44.755C36.786 44.523 37.199 44.255 37.598 43.991L36.985 43.091C36.217 43.596 35.4203 44.0561 34.599 44.469L35.872 47.113C35.8862 47.1427 35.8945 47.1748 35.8963 47.2077C35.898 47.2405 35.8933 47.2735 35.8824 47.3045C35.8714 47.3355 35.8544 47.3641 35.8324 47.3885C35.8104 47.413 35.7837 47.4329 35.754 47.447C34.6289 47.98 33.4681 48.4341 32.28 48.806C32.2485 48.8159 32.2155 48.8195 32.1826 48.8165C32.1498 48.8136 32.1179 48.8041 32.0887 48.7888C32.0595 48.7735 32.0336 48.7525 32.0126 48.7272C31.9915 48.7018 31.9757 48.6725 31.966 48.641L31.499 47.12C31.4797 47.0575 31.4857 46.99 31.5156 46.9319C31.5455 46.8737 31.597 46.8296 31.659 46.809L31.938 46.717C32.304 46.597 32.681 46.474 33.046 46.332L32.646 45.314C31.795 45.6382 30.9234 45.9054 30.037 46.114L30.688 48.977C30.6962 49.0136 30.6962 49.0516 30.6877 49.0881C30.6793 49.1247 30.6628 49.1589 30.6393 49.1882C30.6159 49.2174 30.5862 49.2411 30.5524 49.2574C30.5185 49.2736 30.4815 49.282 30.444 49.282L30.45 49.286Z" fill="#C98D00"/>
<path d="M24.924 49.901C23.6818 49.8912 22.4416 49.7977 21.212 49.621C21.1794 49.6163 21.148 49.605 21.1198 49.5881C21.0915 49.5712 21.0668 49.5489 21.0472 49.5224C21.0276 49.4959 21.0134 49.4658 21.0055 49.4338C20.9976 49.4018 20.996 49.3686 21.001 49.336L21.238 47.763C21.2477 47.6985 21.2821 47.6404 21.3341 47.6009C21.386 47.5615 21.4513 47.544 21.516 47.552L21.816 47.591C22.194 47.64 22.583 47.691 22.969 47.721L23.051 46.632C22.143 46.5568 21.241 46.4215 20.351 46.227L19.7 49.091C19.6853 49.1557 19.6454 49.2119 19.5893 49.2473C19.5331 49.2827 19.4652 49.2942 19.4005 49.2795C19.3358 49.2648 19.2796 49.225 19.2442 49.1688C19.2089 49.1126 19.1973 49.0447 19.212 48.98L19.918 45.873C19.9253 45.8409 19.9389 45.8106 19.9579 45.7838C19.977 45.757 20.0011 45.7342 20.029 45.7167C20.0568 45.6993 20.0879 45.6875 20.1203 45.6821C20.1527 45.6766 20.1859 45.6776 20.218 45.685C21.2431 45.9221 22.2854 46.0782 23.335 46.152C23.3678 46.1543 23.3999 46.1631 23.4294 46.1778C23.4589 46.1925 23.4851 46.2129 23.5067 46.2378C23.5282 46.2627 23.5447 46.2916 23.555 46.3229C23.5654 46.3541 23.5694 46.3871 23.567 46.42L23.448 48.006C23.4431 48.0713 23.4128 48.132 23.3637 48.1752C23.3145 48.2184 23.2503 48.2406 23.185 48.237C22.701 48.21 22.218 48.148 21.751 48.087L21.692 48.079L21.529 49.16C22.5712 49.2994 23.6206 49.3782 24.672 49.396V46.467C24.672 46.4012 24.6979 46.338 24.7441 46.2912C24.7904 46.2444 24.8532 46.2178 24.919 46.217C25.9814 46.2121 27.0422 46.1345 28.094 45.985C28.1596 45.9755 28.2263 45.9924 28.2795 46.032C28.3327 46.0715 28.3681 46.1304 28.378 46.196L28.611 47.77C28.6159 47.8029 28.6142 47.8364 28.6061 47.8686C28.5979 47.9009 28.5834 47.9311 28.5633 47.9576C28.5433 47.9842 28.5182 48.0065 28.4895 48.0232C28.4607 48.0399 28.429 48.0507 28.396 48.055L28.262 48.072C27.822 48.129 27.369 48.188 26.915 48.223L26.994 49.31C28.127 49.2184 29.252 49.045 30.36 48.791C30.4247 48.7764 30.4926 48.7881 30.5486 48.8236C30.6047 48.859 30.6444 48.9153 30.659 48.98C30.6736 49.0447 30.6619 49.1126 30.6264 49.1686C30.591 49.2247 30.5347 49.2644 30.47 49.279C29.2559 49.5579 28.0218 49.7411 26.779 49.827C26.7131 49.8314 26.6482 49.8096 26.5984 49.7663C26.5486 49.7231 26.5179 49.6618 26.513 49.596L26.398 48.009C26.3955 47.9759 26.3997 47.9427 26.4102 47.9112C26.4208 47.8798 26.4375 47.8507 26.4593 47.8258C26.4812 47.8008 26.5078 47.7805 26.5376 47.7659C26.5675 47.7514 26.5999 47.7429 26.633 47.741C27.114 47.714 27.603 47.653 28.079 47.592L27.92 46.515C27.0086 46.6346 26.0911 46.7014 25.172 46.715V49.651C25.172 49.7173 25.1456 49.7809 25.0988 49.8278C25.0519 49.8747 24.9883 49.901 24.922 49.901H24.924Z" fill="#C98D00"/>
<path d="M19.435 49.2751C19.4175 49.2752 19.4001 49.2735 19.383 49.27C18.851 49.157 18.325 49.006 17.815 48.859L17.579 48.791H17.568L17.268 48.6911C16.787 48.5321 16.291 48.3671 15.811 48.1681C15.7507 48.1428 15.7028 48.0949 15.6773 48.0348C15.6519 47.9746 15.6511 47.9068 15.675 47.846L16.258 46.3661C16.2702 46.3351 16.2884 46.3069 16.3116 46.2831C16.3349 46.2593 16.3626 46.2403 16.3933 46.2274C16.4239 46.2144 16.4568 46.2078 16.4901 46.2077C16.5233 46.2077 16.5563 46.2142 16.587 46.227C17.006 46.402 17.449 46.5491 17.878 46.6911L17.957 46.7171L18.279 45.677C17.4055 45.3903 16.5494 45.053 15.715 44.667L14.437 47.309C14.4227 47.3387 14.4026 47.3653 14.378 47.3872C14.3534 47.4091 14.3247 47.4259 14.2936 47.4367C14.2625 47.4475 14.2295 47.452 14.1966 47.45C14.1637 47.448 14.1316 47.4395 14.102 47.425C12.9851 46.8769 11.9081 46.2511 10.879 45.552C10.8517 45.5336 10.8284 45.5099 10.8104 45.4824C10.7923 45.4549 10.7798 45.4241 10.7737 45.3918C10.7676 45.3594 10.7679 45.3262 10.7746 45.294C10.7814 45.2618 10.7944 45.2312 10.813 45.2041L11.713 43.8921C11.7317 43.8646 11.7557 43.8412 11.7835 43.8231C11.8114 43.8051 11.8426 43.7928 11.8753 43.787C11.9079 43.7811 11.9414 43.7818 11.9738 43.789C12.0062 43.7963 12.0369 43.8099 12.064 43.8291C12.21 43.9291 12.364 44.0291 12.519 44.1291C12.606 44.1851 12.694 44.24 12.781 44.297C12.932 44.397 13.095 44.4971 13.292 44.6131L13.841 43.667C13.0566 43.2045 12.3036 42.6908 11.587 42.1291L9.75497 44.4231C9.7136 44.4749 9.65332 44.5082 9.5874 44.5156C9.52148 44.523 9.45532 44.5039 9.40347 44.4626C9.35162 44.4212 9.31833 44.3609 9.31092 44.295C9.30351 44.229 9.3226 44.1629 9.36397 44.1111L11.352 41.6211C11.3726 41.5953 11.3981 41.5738 11.427 41.5579C11.4559 41.542 11.4877 41.532 11.5206 41.5285C11.5534 41.5249 11.5866 41.528 11.6182 41.5373C11.6499 41.5467 11.6794 41.5622 11.705 41.583C12.5241 42.2424 13.3934 42.8369 14.305 43.3611C14.3334 43.3775 14.3584 43.3994 14.3783 43.4255C14.3983 43.4516 14.4129 43.4814 14.4214 43.5132C14.4299 43.5449 14.432 43.578 14.4276 43.6106C14.4232 43.6432 14.4125 43.6746 14.396 43.703L13.596 45.0791C13.5631 45.1361 13.509 45.1777 13.4456 45.1952C13.3821 45.2126 13.3143 45.2043 13.257 45.172C13.048 45.054 12.772 44.8961 12.501 44.7151C12.418 44.6611 12.333 44.606 12.247 44.552C12.161 44.498 12.07 44.4401 11.981 44.3811L11.366 45.281C12.2428 45.8643 13.1541 46.3939 14.095 46.867L15.371 44.2301C15.3997 44.1707 15.4507 44.1251 15.5129 44.1032C15.5751 44.0813 15.6434 44.0849 15.703 44.1131C16.6622 44.569 17.6515 44.9585 18.664 45.279C18.7268 45.299 18.7792 45.3431 18.8097 45.4015C18.8402 45.46 18.8464 45.528 18.827 45.591L18.356 47.1111C18.3461 47.143 18.33 47.1725 18.3085 47.1981C18.287 47.2236 18.2606 47.2447 18.2309 47.2599C18.2011 47.275 18.1687 47.2842 18.1354 47.2866C18.1021 47.289 18.0686 47.2847 18.037 47.274L17.717 47.167C17.358 47.048 16.99 46.9251 16.628 46.7851L16.228 47.8C16.621 47.953 17.028 48.088 17.422 48.219L17.722 48.3191L17.953 48.385C18.453 48.529 18.973 48.6781 19.487 48.7851C19.5479 48.7974 19.6021 48.832 19.6388 48.8822C19.6756 48.9323 19.6924 48.9943 19.6859 49.0562C19.6794 49.118 19.6501 49.1752 19.6037 49.2166C19.5573 49.258 19.4971 49.2806 19.435 49.2801V49.2751Z" fill="#C98D00"/>
<path d="M9.535 44.4911C9.47778 44.491 9.42234 44.4712 9.378 44.435C8.4053 43.6594 7.49301 42.811 6.649 41.8971C6.60453 41.8483 6.58114 41.7839 6.58395 41.7179C6.58676 41.652 6.61554 41.5898 6.664 41.545L7.831 40.464C7.8792 40.4193 7.94306 40.3955 8.00875 40.3975C8.07444 40.3996 8.13668 40.4275 8.182 40.4751L8.774 41.096L9.211 41.5141L9.952 40.714C9.28598 40.0807 8.66167 39.405 8.083 38.6911L5.789 40.5191C5.73744 40.5602 5.67173 40.5792 5.60617 40.5721C5.54062 40.565 5.48053 40.5323 5.439 40.481C4.65989 39.5099 3.95776 38.4794 3.339 37.399C3.30605 37.3416 3.29723 37.2734 3.31447 37.2095C3.33172 37.1456 3.37363 37.0911 3.431 37.058L4.809 36.258C4.83804 36.2416 4.8701 36.2311 4.90326 36.2272C4.93643 36.2233 4.97003 36.2261 5.0021 36.2354C5.03416 36.2448 5.06404 36.2604 5.08995 36.2815C5.11587 36.3025 5.13731 36.3286 5.153 36.3581C5.386 36.7801 5.653 37.1941 5.92 37.5951L6.82 36.982C6.31971 36.221 5.8633 35.4321 5.453 34.619L2.805 35.8971C2.74577 35.9227 2.67891 35.9245 2.61841 35.9019C2.55792 35.8794 2.50848 35.8344 2.48044 35.7762C2.45241 35.7181 2.44794 35.6514 2.46799 35.59C2.48804 35.5286 2.53104 35.4774 2.588 35.447L5.458 34.062C5.51744 34.0334 5.58581 34.0294 5.64819 34.0509C5.71058 34.0725 5.76191 34.1178 5.791 34.177C6.25581 35.1229 6.78401 36.0364 7.372 36.911C7.40878 36.9659 7.42239 37.033 7.40983 37.0979C7.39728 37.1627 7.35959 37.2199 7.305 37.257L5.991 38.157C5.96352 38.1757 5.93259 38.1888 5.90002 38.1954C5.86745 38.202 5.83389 38.202 5.8013 38.1955C5.76871 38.189 5.73775 38.1761 5.71023 38.1574C5.6827 38.1388 5.65916 38.1149 5.641 38.0871L5.505 37.878C5.282 37.538 5.053 37.188 4.842 36.826L3.899 37.37C4.43149 38.2782 5.0245 39.1495 5.674 39.9781L7.967 38.1521C8.01868 38.1111 8.08447 38.0921 8.15003 38.0995C8.21559 38.1068 8.2756 38.1397 8.317 38.1911C8.97592 39.0225 9.69771 39.8021 10.476 40.523C10.5004 40.5453 10.5202 40.5721 10.5342 40.6021C10.5482 40.632 10.5561 40.6644 10.5575 40.6974C10.5589 40.7304 10.5538 40.7634 10.5423 40.7944C10.5309 40.8254 10.5135 40.8538 10.491 40.878L9.403 42.0381C9.38041 42.0623 9.35322 42.0818 9.32303 42.0954C9.29283 42.1091 9.26022 42.1166 9.22709 42.1175C9.19396 42.1185 9.16098 42.1128 9.13006 42.1009C9.09915 42.0889 9.07091 42.071 9.047 42.0481L8.423 41.448L8.415 41.44L7.989 40.9931L7.189 41.737C7.97004 42.5608 8.80739 43.3293 9.695 44.037C9.73502 44.0695 9.76401 44.1137 9.77797 44.1634C9.79194 44.213 9.79021 44.2657 9.77301 44.3144C9.75582 44.363 9.724 44.4051 9.68193 44.435C9.63985 44.4648 9.58958 44.4809 9.538 44.481L9.535 44.4911Z" fill="#C98D00"/>
<path d="M2.68598 35.897C2.63864 35.897 2.59227 35.8836 2.55226 35.8583C2.51225 35.833 2.48025 35.7968 2.45998 35.754C1.927 34.6289 1.47291 33.4681 1.10099 32.28C1.09109 32.2486 1.08751 32.2155 1.09046 32.1826C1.0934 32.1498 1.10282 32.1179 1.11815 32.0887C1.13349 32.0595 1.15444 32.0336 1.17982 32.0126C1.20519 31.9915 1.23447 31.9757 1.26599 31.966L2.78699 31.499C2.84945 31.4797 2.91699 31.4857 2.97512 31.5156C3.03326 31.5455 3.07736 31.597 3.09799 31.659L3.18898 31.936C3.30898 32.303 3.43299 32.68 3.57399 33.045L4.59299 32.645C4.2642 31.7865 3.99359 30.9069 3.78298 30.012L0.923985 30.658C0.891872 30.6654 0.858616 30.6663 0.826128 30.6608C0.79364 30.6553 0.762562 30.6435 0.734682 30.6259C0.706802 30.6084 0.68267 30.5855 0.663672 30.5585C0.644675 30.5316 0.631187 30.5011 0.623985 30.469C0.345583 29.2548 0.16236 28.0207 0.0759859 26.778C0.0715822 26.7122 0.093396 26.6472 0.13667 26.5974C0.179944 26.5476 0.241167 26.5169 0.306986 26.512L1.89399 26.397C1.92707 26.3946 1.96031 26.3987 1.99177 26.4092C2.02323 26.4198 2.05228 26.4365 2.07722 26.4584C2.10216 26.4802 2.12251 26.5069 2.13706 26.5367C2.15161 26.5665 2.16008 26.5989 2.16199 26.632C2.18899 27.113 2.24999 27.603 2.31199 28.079L3.38799 27.92C3.26999 27.0172 3.20321 26.1084 3.18799 25.198H0.247986C0.181682 25.198 0.118093 25.1717 0.071209 25.1248C0.0243249 25.0779 -0.00201416 25.0143 -0.00201416 24.948C-0.00201416 24.8817 0.0243249 24.8181 0.071209 24.7712C0.118093 24.7244 0.181682 24.698 0.247986 24.698H3.43399C3.49977 24.698 3.56291 24.724 3.60971 24.7702C3.65651 24.8164 3.6832 24.8792 3.68399 24.945C3.69132 25.999 3.76916 27.0514 3.91699 28.095C3.92643 28.1605 3.90952 28.227 3.86997 28.2801C3.83042 28.3331 3.77145 28.3683 3.70599 28.378L2.13299 28.611C2.10011 28.616 2.06658 28.6143 2.03436 28.6061C2.00214 28.5979 1.97188 28.5834 1.94534 28.5634C1.9188 28.5433 1.89652 28.5182 1.87981 28.4895C1.86309 28.4608 1.85227 28.429 1.84799 28.396L1.82699 28.237C1.77099 27.805 1.71299 27.36 1.67799 26.914L0.590985 26.993C0.67577 28.043 0.831121 29.0859 1.05599 30.115L3.91399 29.469C3.94617 29.4616 3.97949 29.4607 4.01203 29.4663C4.04457 29.4719 4.07569 29.4838 4.10358 29.5015C4.13147 29.5191 4.15559 29.5422 4.17454 29.5692C4.19349 29.5962 4.2069 29.6268 4.21399 29.659C4.44348 30.6942 4.75513 31.7094 5.14599 32.695C5.15795 32.7256 5.16378 32.7583 5.16312 32.7911C5.16246 32.824 5.15533 32.8564 5.14214 32.8865C5.12895 32.9166 5.10996 32.9437 5.08626 32.9665C5.06255 32.9892 5.03459 33.0071 5.00399 33.019L3.52199 33.599C3.46106 33.6228 3.39322 33.6219 3.33302 33.5963C3.27282 33.5706 3.22506 33.5225 3.19998 33.462C3.01298 33.01 2.85899 32.542 2.71099 32.089L2.69699 32.046L1.65199 32.367C2.00197 33.4498 2.42185 34.5086 2.90899 35.537C2.92703 35.5751 2.93515 35.6172 2.93257 35.6592C2.93 35.7013 2.91683 35.7421 2.89427 35.7777C2.87172 35.8133 2.84052 35.8427 2.80358 35.863C2.76663 35.8834 2.72515 35.8941 2.68299 35.894L2.68598 35.897Z" fill="#C98D00"/>
<path d="M0.254997 25.173C0.222166 25.1727 0.189708 25.166 0.159477 25.1532C0.129245 25.1404 0.101833 25.1218 0.0788035 25.0984C0.0557744 25.075 0.0375801 25.0472 0.0252595 25.0168C0.0129388 24.9864 0.00673289 24.9538 0.00699659 24.921C0.0166843 23.6787 0.110566 22.4385 0.287997 21.209C0.292762 21.1763 0.303928 21.145 0.320853 21.1167C0.337777 21.0885 0.360125 21.0638 0.386612 21.0442C0.413099 21.0246 0.443202 21.0104 0.475189 21.0025C0.507176 20.9945 0.540416 20.993 0.572997 20.998L2.146 21.235C2.21047 21.2446 2.26862 21.2792 2.30803 21.3311C2.34745 21.383 2.36502 21.4483 2.357 21.513C2.34366 21.6196 2.33 21.7263 2.316 21.833C2.268 22.206 2.216 22.589 2.187 22.968L3.275 23.05C3.303 22.703 3.348 22.359 3.391 22.023C3.40566 21.911 3.42 21.799 3.434 21.687V21.673C3.457 21.547 3.478 21.421 3.5 21.295C3.555 20.977 3.611 20.649 3.683 20.325L0.826996 19.672C0.794841 19.6648 0.764427 19.6513 0.737503 19.6323C0.710578 19.6133 0.687676 19.5892 0.670111 19.5613C0.652547 19.5334 0.640667 19.5023 0.635155 19.4698C0.629644 19.4373 0.630609 19.4041 0.637996 19.372C0.747996 18.85 0.896997 18.333 1.038 17.833L1.114 17.568V17.557L1.214 17.257C1.373 16.776 1.538 16.278 1.738 15.798C1.76307 15.7376 1.81083 15.6893 1.87103 15.6637C1.93123 15.6381 1.99907 15.6371 2.06 15.661L3.54 16.244C3.57094 16.2562 3.59914 16.2744 3.62295 16.2976C3.64675 16.3209 3.66568 16.3487 3.67862 16.3793C3.69157 16.4099 3.69827 16.4428 3.69833 16.4761C3.6984 16.5094 3.69182 16.5423 3.679 16.573C3.507 16.987 3.361 17.423 3.221 17.845L3.188 17.945L4.228 18.267C4.51323 17.4022 4.84709 16.5541 5.228 15.727L2.58 14.45C2.54909 14.4366 2.5212 14.4171 2.49802 14.3927C2.47483 14.3682 2.45682 14.3393 2.44507 14.3078C2.43332 14.2762 2.42807 14.2426 2.42964 14.209C2.4312 14.1753 2.43955 14.1423 2.45418 14.112C2.46881 14.0816 2.48942 14.0546 2.51478 14.0324C2.54013 14.0102 2.56971 13.9934 2.60172 13.9829C2.63374 13.9725 2.66754 13.9686 2.7011 13.9715C2.73466 13.9745 2.76727 13.9841 2.797 14L5.667 15.384C5.72633 15.4127 5.77192 15.4637 5.79383 15.5259C5.81575 15.5881 5.81221 15.6564 5.784 15.716C5.3336 16.6688 4.94741 17.6507 4.628 18.655C4.60799 18.7178 4.56398 18.7702 4.50555 18.8007C4.44711 18.8312 4.37899 18.8374 4.316 18.818L2.796 18.348C2.76409 18.3381 2.73449 18.322 2.70893 18.3005C2.68337 18.279 2.66237 18.2526 2.64718 18.2229C2.63199 18.1931 2.6229 18.1607 2.62047 18.1274C2.61803 18.094 2.62229 18.0606 2.633 18.029C2.671 17.9156 2.709 17.8023 2.747 17.689C2.864 17.337 2.985 16.975 3.123 16.619L2.108 16.219C1.954 16.613 1.819 17.019 1.688 17.419L1.588 17.719L1.513 17.979C1.394 18.393 1.272 18.818 1.173 19.243L4.033 19.897C4.0655 19.9044 4.0962 19.9182 4.12329 19.9376C4.15038 19.957 4.17331 19.9817 4.19074 20.0101C4.20816 20.0385 4.21972 20.0701 4.22475 20.1031C4.22977 20.136 4.22816 20.1697 4.22 20.202C4.12 20.588 4.053 20.992 3.985 21.382C3.963 21.507 3.942 21.633 3.919 21.758C3.896 21.883 3.891 21.979 3.877 22.089C3.824 22.498 3.77 22.92 3.747 23.334C3.7451 23.3671 3.73662 23.3995 3.72207 23.4294C3.70752 23.4592 3.68718 23.4858 3.66223 23.5077C3.63729 23.5295 3.60824 23.5462 3.57678 23.5567C3.54532 23.5673 3.51208 23.5714 3.479 23.569L1.893 23.45C1.82773 23.4451 1.76698 23.4148 1.72379 23.3656C1.6806 23.3165 1.65841 23.2523 1.662 23.187C1.689 22.71 1.751 22.232 1.811 21.77L1.821 21.694L0.738996 21.531C0.587804 22.6582 0.507646 23.7938 0.498996 24.931C0.496969 24.9949 0.470551 25.0555 0.42517 25.1006C0.37979 25.1456 0.318894 25.1715 0.254997 25.173V25.173Z" fill="#C98D00"/>
<path d="M2.70998 14.455C2.66758 14.4549 2.6259 14.444 2.58885 14.4234C2.55181 14.4028 2.52062 14.3731 2.49822 14.3371C2.47582 14.3011 2.46294 14.26 2.4608 14.2176C2.45866 14.1753 2.46732 14.1331 2.48598 14.095C3.03431 12.978 3.66018 11.9007 4.35898 10.871C4.37746 10.8438 4.40113 10.8205 4.42863 10.8024C4.45614 10.7843 4.48694 10.7719 4.51928 10.7657C4.55161 10.7596 4.58483 10.7599 4.61704 10.7666C4.64925 10.7734 4.67982 10.7864 4.70698 10.805L6.01898 11.705C6.04625 11.7237 6.06954 11.7476 6.0875 11.7754C6.10545 11.8032 6.11771 11.8343 6.12357 11.8669C6.12943 11.8994 6.12877 11.9328 6.12163 11.9651C6.11449 11.9974 6.10102 12.0279 6.08198 12.055C5.98198 12.202 5.88198 12.355 5.78198 12.511C5.72698 12.598 5.67098 12.686 5.61398 12.772C5.51398 12.928 5.40798 13.093 5.29798 13.282L6.24398 13.831C6.71089 13.0393 7.23005 12.2796 7.79798 11.557L5.50998 9.72502C5.48419 9.70442 5.46273 9.67888 5.44685 9.64994C5.43097 9.62101 5.42097 9.58925 5.41744 9.55644C5.4139 9.52362 5.4169 9.49037 5.42627 9.45872C5.43563 9.42707 5.45117 9.3976 5.47198 9.37199C6.24842 8.40002 7.0968 7.48778 8.00998 6.64298C8.05875 6.59851 8.12313 6.57511 8.18907 6.57792C8.25501 6.58073 8.31717 6.60954 8.36198 6.658L9.44298 7.82499C9.48765 7.8732 9.51154 7.93703 9.50949 8.00273C9.50743 8.06842 9.47958 8.13069 9.43198 8.176L8.81098 8.76902L8.39198 9.20597L9.19198 9.94596C9.81853 9.28636 10.4866 8.66747 11.192 8.093L9.35798 5.79301C9.31661 5.74116 9.29753 5.67497 9.30493 5.60905C9.31234 5.54313 9.34563 5.48288 9.39748 5.44151C9.44933 5.40013 9.51549 5.38106 9.58141 5.38847C9.64733 5.39588 9.70761 5.42915 9.74898 5.481L11.737 7.97099C11.7781 8.02255 11.7972 8.08823 11.79 8.15379C11.7829 8.21934 11.7502 8.27943 11.699 8.32096C10.8749 8.97574 10.1016 9.69214 9.38598 10.464C9.36375 10.4884 9.33689 10.5082 9.30696 10.5222C9.27703 10.5362 9.24462 10.5441 9.21161 10.5455C9.1786 10.5469 9.14564 10.5418 9.11463 10.5304C9.08363 10.519 9.0552 10.5015 9.03098 10.479L7.86598 9.395C7.84173 9.37241 7.82222 9.34524 7.80857 9.31504C7.79492 9.28484 7.78741 9.25222 7.78648 9.21909C7.78555 9.18597 7.79122 9.15297 7.80315 9.12205C7.81508 9.09113 7.83304 9.06289 7.85598 9.03898L8.45598 8.41502L8.46398 8.40696L8.91098 7.98002L8.16698 7.17997C7.40283 7.90318 6.68633 8.67517 6.02198 9.49101L8.30898 11.321C8.33477 11.3416 8.35623 11.3671 8.37211 11.396C8.388 11.425 8.39799 11.4568 8.40153 11.4896C8.40506 11.5224 8.40206 11.5556 8.39269 11.5873C8.38333 11.6189 8.3678 11.6484 8.34698 11.674C7.68107 12.4995 7.08122 13.3763 6.55298 14.296C6.51958 14.353 6.46496 14.3945 6.40105 14.4114C6.33715 14.4282 6.26917 14.4191 6.21198 14.386L4.83598 13.586C4.77898 13.5531 4.73725 13.4991 4.71984 13.4356C4.70243 13.3721 4.71074 13.3044 4.74298 13.247C4.90798 12.953 5.05298 12.713 5.19998 12.492C5.25498 12.409 5.30898 12.323 5.36298 12.238C5.41698 12.153 5.47498 12.061 5.53398 11.972L4.63398 11.356C4.00349 12.3029 3.43561 13.29 2.93398 14.311C2.91401 14.3537 2.88238 14.3898 2.84275 14.4153C2.80312 14.4408 2.75709 14.4545 2.70998 14.455Z" fill="#C98D00"/>
<path d="M12.854 7.40601C12.8132 7.4061 12.773 7.3962 12.7369 7.3772C12.7009 7.35821 12.67 7.33068 12.647 7.297L11.747 5.98304C11.7283 5.95556 11.7153 5.92461 11.7086 5.89204C11.702 5.85946 11.702 5.82593 11.7085 5.79334C11.715 5.76075 11.728 5.7298 11.7466 5.70228C11.7652 5.67475 11.7892 5.65117 11.817 5.633L12.026 5.49604C12.366 5.27304 12.716 5.04401 13.077 4.83301L12.533 3.891C11.5538 4.46478 10.618 5.10952 9.73299 5.82001C9.68127 5.86023 9.61583 5.87852 9.55075 5.87098C9.48567 5.86344 9.42615 5.83065 9.385 5.77967C9.34385 5.72869 9.32435 5.6636 9.33071 5.5984C9.33707 5.53319 9.36877 5.47311 9.41899 5.43104C10.3904 4.65185 11.4212 3.94968 12.502 3.331C12.5594 3.29805 12.6276 3.28928 12.6915 3.30653C12.7554 3.32377 12.8099 3.36567 12.843 3.42304L13.643 4.79999C13.6595 4.82904 13.6699 4.86113 13.6738 4.89429C13.6777 4.92746 13.6749 4.96105 13.6656 4.99311C13.6563 5.02517 13.6406 5.05508 13.6196 5.081C13.5985 5.10692 13.5725 5.12836 13.543 5.14405C13.121 5.37705 12.707 5.64402 12.306 5.91102L12.919 6.81104C13.6874 6.30656 14.484 5.84642 15.305 5.43299L14.033 2.78803C14.0187 2.75836 14.0105 2.72617 14.0087 2.69331C14.0069 2.66044 14.0117 2.62753 14.0226 2.5965C14.0336 2.56547 14.0506 2.53691 14.0726 2.51246C14.0946 2.48801 14.1213 2.46818 14.151 2.45405C15.2761 1.92136 16.4369 1.46757 17.625 1.09602C17.6564 1.08612 17.6895 1.08257 17.7224 1.08552C17.7552 1.08846 17.7871 1.09783 17.8163 1.11317C17.8455 1.1285 17.8714 1.1495 17.8924 1.17487C17.9135 1.20024 17.9293 1.22948 17.939 1.26099L18.405 2.78199C18.4243 2.84445 18.4183 2.91203 18.3884 2.97016C18.3585 3.02829 18.307 3.0724 18.245 3.09302L17.965 3.185C17.599 3.305 17.223 3.42804 16.859 3.56904L17.259 4.58802C18.1099 4.26355 18.9815 3.9963 19.868 3.78803L19.217 0.924994C19.2023 0.860282 19.2139 0.79238 19.2492 0.736213C19.2846 0.680046 19.3408 0.640215 19.4055 0.625495C19.4702 0.610775 19.5381 0.622371 19.5943 0.657722C19.6504 0.693072 19.6903 0.74932 19.705 0.814033L20.411 3.92103C20.4184 3.95321 20.4193 3.98651 20.4137 4.01905C20.4081 4.05159 20.3962 4.08271 20.3785 4.1106C20.3608 4.13849 20.3378 4.16264 20.3108 4.18159C20.2838 4.20054 20.2532 4.21393 20.221 4.22101C19.1941 4.44958 18.1869 4.75924 17.209 5.14704C17.1784 5.15901 17.1457 5.16479 17.1129 5.16413C17.08 5.16347 17.0476 5.15638 17.0176 5.1432C16.9875 5.13001 16.9603 5.11099 16.9375 5.08729C16.9148 5.06358 16.8969 5.03562 16.885 5.00501L16.306 3.52302C16.2821 3.46209 16.2831 3.39425 16.3088 3.33405C16.3344 3.27385 16.3826 3.22607 16.443 3.201C16.893 3.014 17.361 2.86102 17.813 2.71302L17.859 2.698L17.539 1.65302C16.5362 1.97687 15.5538 2.36055 14.597 2.80201L15.866 5.44105C15.8947 5.50049 15.8987 5.56885 15.8771 5.63123C15.8556 5.69361 15.8102 5.74491 15.751 5.77399C14.7971 6.2419 13.876 6.77382 12.994 7.36603C12.9523 7.39302 12.9036 7.40693 12.854 7.40601V7.40601Z" fill="#C98D00"/>
<path d="M29.744 4.22303C29.7251 4.22316 29.7064 4.22117 29.688 4.21705C28.6628 3.9798 27.6206 3.82361 26.571 3.75001C26.5381 3.74773 26.506 3.73897 26.4766 3.72425C26.4471 3.70953 26.4208 3.68916 26.3993 3.66425C26.3777 3.63935 26.3613 3.61044 26.3509 3.57917C26.3406 3.5479 26.3365 3.51485 26.339 3.482L26.459 1.89503C26.4638 1.82976 26.4941 1.76903 26.5433 1.72584C26.5925 1.68265 26.6566 1.66042 26.722 1.66401C27.199 1.69101 27.676 1.75302 28.137 1.81202L28.215 1.82203L28.378 0.739998C27.3355 0.59993 26.2857 0.520796 25.234 0.502999V3.43201C25.234 3.4978 25.208 3.56094 25.1618 3.60774C25.1156 3.65453 25.0528 3.68123 24.987 3.68201C23.9246 3.68689 22.8637 3.76477 21.812 3.91505C21.7795 3.91986 21.7463 3.91823 21.7145 3.91023C21.6826 3.90223 21.6526 3.88801 21.6262 3.86842C21.5999 3.84882 21.5776 3.82417 21.5607 3.79597C21.5439 3.76776 21.5327 3.73656 21.528 3.70405L21.295 2.13001C21.29 2.09714 21.2917 2.0636 21.2999 2.03138C21.3081 1.99916 21.3226 1.96893 21.3426 1.94239C21.3626 1.91585 21.3878 1.89356 21.4165 1.87684C21.4452 1.86012 21.477 1.84933 21.51 1.84504L21.645 1.82703C22.085 1.77003 22.538 1.711 22.992 1.675L22.913 0.588021C21.78 0.679934 20.655 0.853365 19.547 1.107C19.4823 1.12159 19.4144 1.10992 19.3583 1.07447C19.3023 1.03903 19.2626 0.982751 19.248 0.918038C19.2334 0.853325 19.2451 0.785452 19.2805 0.729378C19.316 0.673305 19.3723 0.633614 19.437 0.619027C20.6512 0.34062 21.8853 0.157362 23.128 0.0709919C23.1938 0.0665882 23.2587 0.0884478 23.3086 0.131722C23.3584 0.174996 23.3891 0.236192 23.394 0.30201L23.51 1.88905C23.5124 1.92213 23.5082 1.95537 23.4977 1.98682C23.4872 2.01828 23.4705 2.04733 23.4486 2.07227C23.4268 2.09722 23.4001 2.11754 23.3703 2.13209C23.3405 2.14664 23.3081 2.15509 23.275 2.15699C22.794 2.18499 22.304 2.24599 21.827 2.30799L21.986 3.38502C22.8973 3.26509 23.8149 3.19829 24.734 3.18501V0.249031C24.734 0.216032 24.7405 0.183364 24.7532 0.152901C24.7659 0.122439 24.7845 0.0947822 24.8079 0.0715412C24.8313 0.0483003 24.8591 0.0299095 24.8897 0.0174641C24.9202 0.00501865 24.953 -0.00123253 24.986 -0.000968537C26.2286 0.00875064 27.4691 0.102638 28.699 0.280037C28.7316 0.284803 28.7629 0.29595 28.7912 0.312874C28.8195 0.329799 28.8441 0.352122 28.8637 0.378609C28.8834 0.405096 28.8975 0.435245 28.9055 0.467232C28.9134 0.499219 28.9149 0.53243 28.91 0.56501L28.673 2.13801C28.6633 2.20248 28.6288 2.26064 28.5769 2.30006C28.525 2.33947 28.4597 2.35703 28.395 2.34901L28.073 2.30799C27.701 2.25999 27.318 2.208 26.939 2.18L26.857 3.27003C27.7649 3.3451 28.6669 3.48036 29.557 3.675L30.208 0.811043C30.2227 0.74633 30.2625 0.690083 30.3187 0.654732C30.3749 0.619382 30.4428 0.607786 30.5075 0.622506C30.5722 0.637225 30.6284 0.677056 30.6638 0.733223C30.6991 0.789391 30.7107 0.857292 30.696 0.922005L29.99 4.029C29.9775 4.08438 29.9465 4.13388 29.9022 4.16932C29.8578 4.20476 29.8027 4.22404 29.746 4.22401L29.744 4.22303Z" fill="#C98D00"/>
<path d="M38.37 8.37999C38.3125 8.38007 38.2567 8.36032 38.212 8.32403C37.3932 7.66397 36.5238 7.0691 35.612 6.54497C35.5835 6.52852 35.5586 6.50662 35.5386 6.48052C35.5187 6.45442 35.504 6.42464 35.4956 6.39287C35.4871 6.36111 35.485 6.32798 35.4894 6.2954C35.4937 6.26282 35.5045 6.23142 35.521 6.20299L36.321 4.82702C36.3541 4.77019 36.4082 4.72864 36.4716 4.71142C36.5351 4.6942 36.6027 4.70265 36.66 4.73498C36.954 4.89998 37.193 5.04501 37.415 5.19201C37.496 5.24501 37.579 5.298 37.663 5.351C37.747 5.404 37.845 5.46599 37.936 5.52599L38.551 4.62603C37.674 4.04339 36.7627 3.51408 35.822 3.04101L34.546 5.67803C34.5173 5.73737 34.4663 5.78295 34.4041 5.80486C34.3419 5.82677 34.2736 5.82319 34.214 5.79497C33.2545 5.33952 32.2652 4.94964 31.253 4.62798C31.1902 4.60797 31.1378 4.56398 31.1073 4.50554C31.0768 4.44711 31.0705 4.37902 31.09 4.31603L31.56 2.79601C31.5699 2.76411 31.586 2.73447 31.6075 2.70891C31.629 2.68335 31.6554 2.6624 31.6851 2.64721C31.7148 2.63201 31.7473 2.62291 31.7806 2.62047C31.8139 2.61804 31.8474 2.62228 31.879 2.63299L32.216 2.74602C32.569 2.86402 32.931 2.98398 33.287 3.12298L33.687 2.10802C33.287 1.95102 32.869 1.81298 32.465 1.67998L32.194 1.59002L31.979 1.52801C31.473 1.38201 30.949 1.228 30.429 1.122C30.3953 1.11716 30.3629 1.10551 30.3338 1.0877C30.3048 1.06989 30.2797 1.04629 30.26 1.01842C30.2404 0.990555 30.2267 0.959009 30.2198 0.925649C30.2128 0.89229 30.2127 0.857841 30.2195 0.824453C30.2264 0.791065 30.24 0.759444 30.2595 0.731497C30.279 0.703549 30.304 0.679846 30.333 0.661916C30.3619 0.643987 30.3943 0.632162 30.428 0.627187C30.4617 0.622213 30.4961 0.62419 30.529 0.632986C31.067 0.745986 31.6 0.900025 32.115 1.04802L32.335 1.11101H32.345L32.62 1.20202C33.11 1.36402 33.62 1.53198 34.105 1.73498C34.1657 1.76005 34.214 1.80803 34.2397 1.86846C34.2653 1.92889 34.2661 1.99693 34.242 2.05797L33.658 3.53802C33.6458 3.56896 33.6276 3.59716 33.6043 3.62096C33.5811 3.64477 33.5533 3.66368 33.5227 3.67663C33.4921 3.68957 33.4592 3.69628 33.4259 3.69634C33.3926 3.6964 33.3597 3.68982 33.329 3.67699C32.915 3.50399 32.478 3.35901 32.056 3.21801L31.956 3.18603L31.635 4.226C32.5083 4.51369 33.3644 4.85123 34.199 5.23699L35.477 2.59502C35.4913 2.56535 35.5113 2.5388 35.5359 2.5169C35.5606 2.49499 35.5893 2.47812 35.6204 2.46734C35.6515 2.45656 35.6845 2.45203 35.7174 2.45403C35.7502 2.45603 35.7824 2.46452 35.812 2.47899C36.9286 3.0272 38.0056 3.65273 39.035 4.351C39.0622 4.36948 39.0855 4.39314 39.1036 4.42064C39.1217 4.44815 39.1341 4.47895 39.1403 4.51128C39.1464 4.54361 39.1461 4.57685 39.1393 4.60906C39.1326 4.64127 39.1196 4.67186 39.101 4.69903L38.201 6.01201C38.1823 6.03943 38.1583 6.06282 38.1304 6.08086C38.1026 6.0989 38.0714 6.11125 38.0387 6.11712C38.006 6.12298 37.9725 6.12227 37.9401 6.11504C37.9077 6.10782 37.8771 6.09419 37.85 6.075C37.702 5.97 37.542 5.86901 37.388 5.77501C37.303 5.72101 37.218 5.66699 37.133 5.61199C36.977 5.51199 36.812 5.40601 36.623 5.29601L36.074 6.24199C36.8589 6.70457 37.6122 7.2187 38.329 7.781L40.161 5.48699C40.2024 5.43514 40.2626 5.40187 40.3286 5.39446C40.3945 5.38705 40.4607 5.40613 40.5125 5.4475C40.5644 5.48887 40.5976 5.54918 40.605 5.6151C40.6125 5.68102 40.5934 5.74715 40.552 5.799L38.564 8.28899C38.5434 8.31491 38.5178 8.3365 38.4888 8.35247C38.4598 8.36843 38.4279 8.37847 38.395 8.38201L38.37 8.37999Z" fill="#C98D00"/>
<path d="M44.348 15.862C44.3011 15.8621 44.2552 15.8491 44.2154 15.8243C44.1756 15.7996 44.1436 15.7641 44.123 15.722C43.6581 14.7761 43.1299 13.8628 42.542 12.9881C42.5052 12.9332 42.4916 12.8661 42.5042 12.8012C42.5167 12.7364 42.5544 12.6792 42.609 12.6421L43.924 11.747C43.9515 11.7283 43.9824 11.7153 44.015 11.7087C44.0475 11.7021 44.0811 11.7021 44.1137 11.7086C44.1463 11.7151 44.1772 11.728 44.2048 11.7467C44.2323 11.7653 44.2558 11.7892 44.274 11.817L44.416 12.034C44.637 12.372 44.865 12.7191 45.073 13.0771L46.015 12.533C45.4829 11.6245 44.8902 10.7529 44.241 9.92404L41.947 11.7511C41.8952 11.7924 41.8292 11.8114 41.7634 11.8041C41.6976 11.7968 41.6374 11.7637 41.596 11.7121C40.9377 10.8798 40.2159 10.0998 39.437 9.37906C39.4126 9.35682 39.3928 9.32995 39.3788 9.30002C39.3648 9.27009 39.3568 9.23769 39.3554 9.20468C39.3541 9.17167 39.3592 9.1387 39.3706 9.10769C39.3821 9.07669 39.3995 9.04823 39.422 9.02401L40.506 7.85904C40.5285 7.83469 40.5557 7.81509 40.5859 7.80136C40.6162 7.78762 40.6488 7.78 40.682 7.77902C40.7487 7.77747 40.8134 7.80229 40.862 7.84805L41.486 8.44803L41.494 8.45602L41.921 8.90304L42.721 8.15902C41.9397 7.33552 41.1023 6.56703 40.215 5.85904C40.1634 5.81726 40.1305 5.75671 40.1236 5.6907C40.1167 5.62469 40.1362 5.55863 40.178 5.50705C40.2198 5.45546 40.2803 5.42255 40.3463 5.41562C40.4123 5.40868 40.4784 5.42829 40.53 5.47006C41.5024 6.24594 42.4147 7.09433 43.259 8.00802C43.3035 8.05679 43.3268 8.12122 43.324 8.18716C43.3212 8.2531 43.2924 8.3152 43.244 8.36001L42.082 9.43802C42.0338 9.48269 41.9699 9.5066 41.9042 9.50454C41.8385 9.50249 41.7763 9.47463 41.731 9.42703L41.138 8.80606L40.701 8.38705L39.961 9.18704C40.6275 9.82022 41.2518 10.4963 41.83 11.211L44.13 9.38205C44.1817 9.34106 44.2475 9.32213 44.313 9.32943C44.3786 9.33674 44.4386 9.36969 44.48 9.42105C45.2592 10.3925 45.9613 11.4233 46.58 12.5041C46.6129 12.5615 46.6218 12.6296 46.6045 12.6936C46.5873 12.7575 46.5454 12.812 46.488 12.8451L45.11 13.64C45.0809 13.6565 45.0489 13.667 45.0157 13.6709C44.9826 13.6747 44.949 13.6719 44.9169 13.6626C44.8848 13.6533 44.855 13.6377 44.829 13.6166C44.8031 13.5955 44.7817 13.5695 44.766 13.5401C44.534 13.1191 44.266 12.707 44.003 12.308L43.103 12.921C43.6033 13.6821 44.0597 14.471 44.47 15.284L47.118 14.007C47.1477 13.9912 47.1803 13.9815 47.2139 13.9786C47.2474 13.9757 47.2812 13.9796 47.3133 13.99C47.3453 14.0005 47.3749 14.0173 47.4002 14.0395C47.4256 14.0616 47.4462 14.0887 47.4608 14.119C47.4754 14.1494 47.4838 14.1824 47.4853 14.216C47.4869 14.2497 47.4817 14.2833 47.4699 14.3148C47.4582 14.3464 47.4402 14.3753 47.417 14.3997C47.3938 14.4242 47.3659 14.4437 47.335 14.4571L44.457 15.838C44.4229 15.8542 44.3857 15.8624 44.348 15.862V15.862Z" fill="#C98D00"/>
<path d="M49.661 25.201H46.475C46.4092 25.201 46.3461 25.1751 46.2993 25.1288C46.2525 25.0826 46.2258 25.0198 46.225 24.954C46.2181 23.9 46.1403 22.8476 45.992 21.804C45.9872 21.7715 45.9888 21.7384 45.9968 21.7065C46.0048 21.6746 46.019 21.6447 46.0386 21.6183C46.0582 21.5919 46.0828 21.5697 46.111 21.5528C46.1392 21.5359 46.1705 21.5248 46.203 21.52L47.777 21.286C47.8099 21.2811 47.8434 21.2828 47.8756 21.291C47.9078 21.2991 47.9381 21.3137 47.9646 21.3337C47.9912 21.3537 48.0134 21.3788 48.0302 21.4075C48.0469 21.4363 48.0577 21.4681 48.062 21.501L48.08 21.641C48.137 22.08 48.196 22.532 48.231 22.985L49.318 22.906C49.2335 21.8561 49.0785 20.8131 48.854 19.784L45.995 20.431C45.9627 20.4384 45.9293 20.4392 45.8967 20.4336C45.8641 20.428 45.833 20.416 45.8051 20.3982C45.7772 20.3804 45.7531 20.3573 45.7342 20.3301C45.7153 20.303 45.702 20.2723 45.695 20.24C45.4658 19.2045 45.1544 18.189 44.764 17.203C44.752 17.1724 44.7462 17.1398 44.7468 17.1069C44.7475 17.0741 44.7546 17.0417 44.7678 17.0116C44.781 16.9815 44.8 16.9543 44.8237 16.9315C44.8474 16.9088 44.8754 16.891 44.906 16.879L46.387 16.299C46.4479 16.2752 46.5157 16.2761 46.5759 16.3018C46.6361 16.3274 46.6839 16.3756 46.709 16.436C46.892 16.875 47.041 17.329 47.185 17.768L47.213 17.853L48.258 17.533C47.9082 16.4503 47.4887 15.3915 47.002 14.363C46.9736 14.3031 46.9702 14.2343 46.9925 14.1719C47.0148 14.1094 47.061 14.0584 47.121 14.03C47.1809 14.0016 47.2497 13.9983 47.3121 14.0206C47.3746 14.0429 47.4256 14.089 47.454 14.149C47.9867 15.2741 48.4404 16.4349 48.812 17.623C48.8219 17.6544 48.8255 17.6876 48.8225 17.7204C48.8196 17.7532 48.8101 17.7851 48.7948 17.8143C48.7795 17.8435 48.7585 17.8694 48.7331 17.8904C48.7078 17.9115 48.6785 17.9273 48.647 17.937L47.127 18.403C47.0646 18.422 46.9974 18.4159 46.9395 18.386C46.8816 18.3562 46.8376 18.3049 46.817 18.243C46.7816 18.137 46.7466 18.031 46.712 17.925C46.596 17.572 46.477 17.208 46.341 16.856L45.323 17.256C45.6514 18.1149 45.9216 18.9949 46.132 19.89L48.992 19.243C49.0241 19.2357 49.0573 19.2347 49.0898 19.2402C49.1223 19.2457 49.1534 19.2576 49.1813 19.2751C49.2092 19.2927 49.2333 19.3156 49.2523 19.3425C49.2713 19.3695 49.2848 19.3999 49.292 19.432C49.57 20.6462 49.7529 21.8803 49.839 23.123C49.8434 23.1888 49.8216 23.2538 49.7783 23.3036C49.735 23.3534 49.6738 23.3842 49.608 23.389L48.021 23.505C47.9879 23.5074 47.9547 23.5033 47.9232 23.4927C47.8917 23.4822 47.8627 23.4655 47.8377 23.4437C47.8128 23.4218 47.7925 23.3952 47.7779 23.3654C47.7634 23.3355 47.7549 23.3031 47.753 23.27C47.726 22.788 47.665 22.298 47.603 21.822L46.526 21.982C46.6443 22.8848 46.7111 23.7936 46.726 24.704H49.666C49.7323 24.704 49.7959 24.7303 49.8428 24.7772C49.8896 24.8241 49.916 24.8877 49.916 24.954C49.916 25.0203 49.8896 25.0839 49.8428 25.1308C49.7959 25.1777 49.7323 25.204 49.666 25.204L49.661 25.201Z" fill="#C98D00"/>
</g>
<defs>
<clipPath id="clip0_1402_7956">
<rect width="49.911" height="49.901" fill="white"/>
</clipPath>
</defs>
</svg>
