<svg width="352" height="165" viewBox="0 0 352 165" fill="none" xmlns="http://www.w3.org/2000/svg">
<g opacity="0.15">
<path d="M151.246 2.48924C151.996 3.84051 154.276 7.5207 157.367 9.13423C160.458 10.7478 171.006 12.9121 176.686 13.2663C182.366 13.6205 189.05 12.8728 192.334 12.4399C195.618 12.007 206.669 10.5903 209.683 11.1019C212.696 11.6135 213.546 12.6367 216.097 13.8566C218.647 15.0766 226.297 19.917 228.963 20.7434C231.629 21.5699 233.716 22.1758 235.918 22.0499C238.12 21.924 239.613 21.4397 240.38 20.9567C241.148 20.4737 242.389 19.2662 242.389 19.2662L243.379 19.6213C243.379 19.6213 247.26 20.6335 249.108 20.1795C250.956 19.7255 257.098 16.3588 258.478 15.2984C259.857 14.2381 261.627 13.0451 262.616 13.1777C263.605 13.3102 271.361 15.9081 273.027 15.9611C274.693 16.014 275.578 16.3587 275.578 16.3587C275.578 16.3587 274.363 21.1832 274.71 23.304C275.057 25.4248 275.67 29.658 277.985 32.7163C280.3 35.7744 284.894 40.196 289.199 40.7854C293.504 41.3749 295.747 41.3749 297.701 40.6012C299.654 39.8274 301.825 38.5378 302.982 37.322C304.14 36.1061 305.531 33.9805 305.531 33.9805L306.146 32.7726C306.146 32.7726 305.941 35.6059 306.468 36.8287C306.995 38.0515 307.976 39.7365 309.762 39.99C311.549 40.2435 313.32 39.7812 313.906 40.348C314.492 40.9146 316.556 44.4189 317.068 45.6716C317.581 46.9242 319.674 50.0409 320.875 50.7566C322.076 51.4724 324.619 51.8923 325.199 51.9144C325.78 51.9364 326.658 52.1336 326.658 52.1336C326.658 52.1336 325.345 55.3379 325.151 56.7674C324.957 58.197 324.836 64.0879 326.022 66.8978C327.208 69.7077 329.87 72.5915 330.669 74.1198C331.467 75.648 331.467 77.7924 331.104 78.6305C330.741 79.4685 327.789 84.4967 326.579 86.3207C325.369 88.1447 323.265 92.4828 323.337 96.0321C323.409 99.5815 324.74 103.501 325.587 104.93C326.434 106.36 327.813 108.751 329.991 109.786C332.169 110.821 333.79 111.285 335.146 111.324C336.501 111.363 337.275 111.324 337.275 111.324C337.275 111.324 337.929 114.075 338.8 115.48C339.671 116.885 341.656 120.804 341.752 123.885C341.849 126.966 341.244 136.184 341.002 137.367C340.76 138.55 340.446 140.769 340.542 141.237C340.639 141.705 341.51 149.716 341.389 151.219C341.268 152.723 340.784 158.663 340.809 159.649C340.833 160.635 340.919 161.97 341.2 162.491C341.481 163.012 342.073 163.625 342.525 163.942C342.976 164.259 343.648 164.506 343.919 164.536C344.19 164.566 344.782 164.525 345.114 164.382C345.445 164.239 347.206 162.607 347.206 162.607L347.206 12.3635L346.595 3.07351L335.505 2.37415L151.246 2.48924L151.246 2.48924Z" fill="#E2E2E2"/>
<path d="M214.446 12.3635C218.526 14.2186 227.55 17.9736 231.63 18.3152C235.71 18.6567 238.641 19.0404 240.427 16.7274C241.885 14.8387 241.273 12.1039 238.933 10.6604C237.644 9.86465 234.815 10.0614 235.767 9.02293C236.695 8.01067 241.481 8.73642 243.506 10.808C244.604 11.9308 244.989 13.8961 245.169 15.3523C245.348 16.8086 245.936 17.9527 247.867 17.9889C250.314 18.0346 252.788 16.9397 254.256 16.2926C257.078 15.0487 261.471 13.4082 261.471 13.4082C261.471 13.4082 254.254 17.8856 252.555 18.6982C250.856 19.5107 246.955 20.3771 245.999 20.1796C245.042 19.9821 242.389 19.2663 242.389 19.2663C242.389 19.2663 241.978 19.8541 241.278 20.3387C240.911 20.5925 239.471 21.4721 237.735 21.8783C236.156 22.2478 234.31 22.1705 233.257 21.9397C231.045 21.4549 227.364 20.1413 225.753 19.2625C224.142 18.3839 216.396 14.0048 216.396 14.0048L212.627 11.9325L214.446 12.3636L214.446 12.3635Z" fill="#A2A2A5"/>
<path d="M246.903 2.77252C248.631 5.25738 252.09 6.87663 254.793 6.53598C258.288 6.09524 261.258 4.31022 263.626 4.43727C265.995 4.56419 272.539 5.96749 275.436 5.45956C278.333 4.95162 284.446 2.37424 284.446 2.37424L249.057 2.71431L246.903 2.77252Z" fill="#A2A2A5"/>
<path d="M289.934 9.25592C289.22 13.0351 284.446 16.3814 282.117 19.8349C280.872 21.6805 278.683 25.9838 281.279 31.4763C283.162 35.4594 287.248 38.8155 291.726 39.9021C296.109 40.9658 300.565 39.1258 300.565 39.1258C300.565 39.1258 296.427 41.7167 292.645 41.2216C288.863 40.7265 284.447 38.9691 281.878 36.8707C279.308 34.7722 277.236 31.5185 276.416 29.2761C275.596 27.0336 274.729 22.134 274.729 22.134L275.633 16.0335C275.633 16.0335 278.272 15.9823 279.999 15.3524C281.726 14.7224 284.361 13.696 285.57 12.8612C286.779 12.0264 288.767 10.3776 288.767 10.3776L289.934 9.25592Z" fill="#A2A2A5"/>
<path d="M304.936 34.4558C306.404 30.9928 306.258 27.7962 305.793 26.1633C305.02 23.4473 301.729 22.9647 303.042 21.5479C304.356 20.1312 306.238 22.0448 307.393 23.9905C309.473 27.4941 308.211 32.1951 308.222 34.444C308.229 36.0992 309.855 37.9767 311.594 37.8587C313.332 37.7406 316.055 38.3414 317.059 40.4272C318.064 42.513 318.766 45.352 321.053 48.442C322.737 50.7179 325.199 51.9145 325.199 51.9145C325.199 51.9145 321.627 52.1875 319.927 50.2675C318.227 48.3475 315.6 42.3264 315.252 41.7755C314.904 41.2245 313.861 39.9653 312.972 40.0439C312.084 40.1227 310.064 40.1695 309.031 39.6505C307.998 39.1314 307.35 38.3072 306.892 37.6941C306.434 37.0809 306.141 35.6515 306.11 35.2273C306.08 34.8032 306.113 33.2546 306.113 33.2546L306.186 32.5587L304.936 34.4558Z" fill="#A2A2A5"/>
<path d="M326.956 51.9145C331.715 49.8834 331.995 49.9405 332.947 48.857C333.898 47.7736 335.074 45.7779 335.466 45.0366C335.858 44.2954 336.044 42.1561 336.044 42.1561C336.044 42.1561 337.592 47.1867 335.814 49.9205C334.644 51.7201 331.726 52.2193 329.946 56.8761C328.578 60.4556 328.886 63.9855 331.181 66.8935C333.476 69.8016 335.727 72.7319 335.398 75.7517C335.144 78.079 333.421 80.5164 330.786 84.6887C329.895 86.0989 326.658 88.7954 324.651 94.5142C323.857 96.7751 323.466 99.7595 323.466 99.7595C323.466 99.7595 323.142 97.2809 323.337 95.1047C323.555 92.6601 324.325 90.4334 324.964 89.3455C326.173 87.2891 328.509 83.2801 329.468 81.5782C330.428 79.8764 331.267 78.1658 331.435 77.0253C331.603 75.8848 331.314 74.8642 329.946 72.9876C328.579 71.1109 326.774 68.9221 326.061 66.5905C325.348 64.2591 324.764 61.4904 325.035 58.7574C325.306 56.0244 326.957 51.9145 326.957 51.9145L326.956 51.9145Z" fill="#A2A2A5"/>
<path d="M341.951 105.838C343.061 108.87 341.073 111.022 340.707 112.299C340.341 113.576 342.069 115.627 342.905 119.298C343.74 122.969 343.688 126.353 343.166 130.566C342.644 134.78 340.542 141.237 340.542 141.237C340.542 141.237 341.129 135.525 341.39 133.024C341.651 130.524 341.547 121.905 341.338 120.894C341.129 119.883 338.151 113.818 338.151 113.818L337.275 111.324C337.275 111.324 338.559 110.879 339.279 110.414C339.999 109.948 340.65 109.567 341.052 108.876C341.454 108.185 341.786 107.042 341.786 107.042L341.951 105.838L341.951 105.838Z" fill="#A2A2A5"/>
<path d="M318.422 9.93278C321.868 9.86664 324.653 7.6432 327.29 7.45922C329.42 7.3106 331.717 8.99146 332.137 10.3286C333.077 13.3214 334.193 16.7133 338.186 16.7787C343.174 16.8604 348.474 9.70904 348.474 9.70904C348.474 9.70904 348.509 4.7455 347.436 2.63768C346.363 0.529865 335.82 2.63768 335.82 2.63768L306.985 3.18748C306.985 3.18748 312.192 10.0522 318.422 9.93278Z" fill="#A2A2A5"/>
<path d="M235.567 22.5533C233.7 22.5533 231.657 22.1404 229.401 21.313C225.977 20.0569 222.518 18.0368 219.172 16.0831C216.512 14.5295 213.999 13.0622 211.658 12.0622C208.866 10.8697 202.816 11.6017 195.81 12.4494C192.376 12.8649 188.825 13.2944 185.172 13.5693C181.956 13.8111 173.586 14.1672 165.344 12.2506C161.785 11.4227 158.781 10.2784 156.417 8.84909C153.699 7.20616 151.818 5.17826 150.825 2.82172C150.725 2.5849 150.832 2.31053 151.065 2.20891C151.297 2.10719 151.567 2.21684 151.667 2.45366C153.852 7.63885 160.422 10.1484 165.548 11.3407C173.669 13.2292 181.93 12.8775 185.104 12.6386C188.737 12.3652 192.278 11.9369 195.702 11.5226C202.836 10.6594 208.998 9.91409 212.012 11.2016C214.406 12.224 216.942 13.7052 219.628 15.2735C222.939 17.2071 226.363 19.2067 229.711 20.435C233.442 21.8033 236.53 21.984 239.151 20.9871C241.809 19.9766 243.99 17.1106 243.017 13.5881C242.051 10.0886 238.955 9.3897 236.597 9.85436C236.35 9.90254 236.109 9.73805 236.06 9.4849C236.012 9.23186 236.175 8.98699 236.423 8.93799C238.285 8.57098 239.992 8.85131 241.358 9.74866C242.579 10.5502 243.482 11.8241 243.899 13.3353C244.749 16.4125 243.501 20.3294 239.472 21.8615C238.259 22.3225 236.962 22.5534 235.567 22.5534L235.567 22.5533Z" fill="black"/>
<path d="M246.697 20.6571C245.047 20.6571 243.564 20.2493 242.252 19.4323C242.036 19.2979 241.968 19.0107 242.1 18.7908C242.232 18.571 242.514 18.5016 242.73 18.6361C245.093 20.1076 248.18 20.0688 251.904 18.5206C254.302 17.524 256.883 15.9465 259.795 13.6982C261.82 12.1348 264.377 12.9841 267.339 13.9676C270.23 14.9278 273.507 16.0161 277.324 15.3991C283.133 14.4599 289.348 10.5095 290.894 6.77304C291.481 5.35434 291.375 4.05355 290.579 2.90713C290.433 2.69668 290.482 2.4055 290.689 2.25665C290.895 2.10779 291.181 2.15784 291.327 2.36818C292.305 3.77557 292.447 5.42409 291.739 7.1355C290.057 11.1999 283.654 15.3205 277.467 16.3209C273.432 16.973 269.896 15.7984 267.055 14.8548C264.226 13.9153 261.991 13.1732 260.348 14.4418C254.988 18.5801 250.419 20.6571 246.697 20.6571Z" fill="black"/>
<path d="M293.164 41.6857C291.524 41.6857 289.795 41.4099 288.001 40.7935C281.075 38.4127 277.727 33.6738 276.137 30.1177C273.701 24.6684 273.918 18.9049 275.151 15.856C275.248 15.6178 275.515 15.5038 275.75 15.6022C275.984 15.7003 276.095 15.9731 275.999 16.2114C274.838 19.0802 274.648 24.5346 276.971 29.731C278.486 33.1192 281.68 37.6354 288.294 39.9093C291.635 41.0575 295.012 41.0323 298.063 39.8368C300.753 38.7826 303.092 36.8515 304.651 34.3994C307.215 30.3641 307.141 25.8544 304.462 22.9109C304.29 22.7218 304.301 22.4266 304.487 22.2514C304.672 22.0762 304.962 22.0875 305.134 22.2764C308.107 25.5433 308.219 30.5009 305.42 34.9065C303.05 38.6356 298.612 41.6855 293.163 41.6858L293.164 41.6857Z" fill="black"/>
<path d="M325.374 52.3838C324.655 52.3838 323.914 52.3126 323.152 52.16C319.243 51.3768 317.484 47.6062 316.07 44.5765C314.821 41.8999 313.984 40.2721 312.572 40.5184C310.524 40.8758 308.614 40.3293 307.331 39.019C305.846 37.5026 305.293 35.1227 305.773 32.3177C305.816 32.0638 306.054 31.8944 306.303 31.9381C306.552 31.9824 306.719 32.2241 306.676 32.4779C306.248 34.9756 306.712 37.0646 307.98 38.3599C309.066 39.4688 310.642 39.9085 312.417 39.5985C314.585 39.2194 315.708 41.6273 316.898 44.1759C318.292 47.1645 319.873 50.5517 323.329 51.2443C328.699 52.3202 333.002 48.9917 334.727 45.4437C336.081 42.6577 335.813 39.9249 334.026 38.3119C333.836 38.1409 333.819 37.8459 333.987 37.6531C334.155 37.4601 334.444 37.4424 334.634 37.6134C336.744 39.5184 337.094 42.6774 335.548 45.8577C333.918 49.211 330.167 52.3835 325.374 52.3838Z" fill="black"/>
<path d="M335.23 111.79C332.398 111.79 329.719 110.59 327.501 108.286C323.648 104.284 321.958 97.667 323.392 92.195C324.278 88.8174 326.197 85.8555 327.89 83.2422C330.471 79.2603 332.335 76.3834 329.861 73.9149C327.492 71.5513 325.682 67.8783 324.897 63.8378C324.038 59.4228 324.519 55.0838 326.249 51.6201C326.364 51.3904 326.64 51.2988 326.865 51.4159C327.091 51.5327 327.181 51.8137 327.066 52.0434C325.428 55.3215 324.977 59.4458 325.796 63.6565C326.546 67.5171 328.262 71.0131 330.502 73.2483C333.516 76.2553 331.264 79.7313 328.655 83.7563C327 86.3102 325.124 89.2048 324.278 92.4357C322.923 97.6048 324.518 103.854 328.155 107.632C330.8 110.38 334.148 111.42 337.583 110.56C339.162 110.164 340.277 109.375 340.896 108.215C342.027 106.099 341.275 103.3 340.9 102.194C340.69 101.578 340.316 101.149 339.757 100.885C337.993 100.05 335.101 101.167 335.072 101.178C334.836 101.271 334.571 101.151 334.48 100.911C334.389 100.671 334.506 100.401 334.742 100.308C334.875 100.255 338.023 99.0367 340.141 100.037C340.928 100.409 341.474 101.032 341.766 101.889C342.181 103.112 343.006 106.218 341.701 108.662C340.953 110.062 339.641 111.005 337.802 111.466C336.936 111.683 336.076 111.79 335.23 111.79L335.23 111.79Z" fill="black"/>
<path d="M344.643 164.916C343.23 164.916 341.89 164.257 341.021 163.098C340.078 161.84 340.285 159.605 340.573 156.513C340.739 154.728 340.927 152.705 340.927 150.486C340.927 148.611 340.697 146.74 340.474 144.932C340.279 143.354 340.078 141.723 340.04 140.134C340.03 139.738 340.177 138.853 340.418 137.442C340.657 136.042 340.927 134.455 340.927 133.738C340.927 132.995 340.98 132.039 341.041 130.933C341.195 128.16 341.405 124.361 340.861 121.381C340.463 119.203 339.485 117.409 338.539 115.675C337.721 114.174 336.948 112.757 336.706 111.293C336.664 111.039 336.832 110.798 337.081 110.755C337.332 110.712 337.567 110.883 337.609 111.137C337.826 112.443 338.562 113.793 339.34 115.222C340.276 116.938 341.336 118.883 341.762 121.21C342.326 124.301 342.112 128.165 341.956 130.986C341.896 132.078 341.843 133.021 341.843 133.738C341.843 134.535 341.578 136.094 341.321 137.601C341.138 138.676 340.948 139.787 340.956 140.112C340.993 141.654 341.182 143.189 341.383 144.815C341.609 146.653 341.843 148.552 341.843 150.487C341.843 152.749 341.653 154.796 341.485 156.601C341.227 159.374 341.024 161.564 341.749 162.532C342.728 163.838 344.206 164.111 345.263 163.93C346.302 163.753 347.082 163.16 347.347 162.343C347.427 162.099 347.686 161.966 347.926 162.047C348.166 162.128 348.297 162.392 348.217 162.637C347.843 163.787 346.795 164.615 345.414 164.851C345.156 164.894 344.899 164.916 344.643 164.916Z" fill="black"/>
</g>
<g opacity="0.15">
<path d="M1.64832 129.373C2.52157 131.745 3.89396 133.227 5.30783 133.396C6.72171 133.566 7.42934 132.867 7.84454 132.126C8.25986 131.385 8.59305 128.737 8.63463 127.001C8.67621 125.264 9.00897 118.742 9.38317 116.836C9.75749 114.93 11.1578 107.941 11.0814 106.67C11.005 105.4 10.5729 103.017 10.5729 103.017C10.5729 103.017 12.8347 102.477 13.8744 101.799C13.8744 101.799 17.2172 99.8851 18.4041 97.4672C19.591 95.0494 21.2728 89.7691 21.3963 86.7047C21.4928 84.3098 21.137 80.6627 20.977 79.1833C20.9322 78.7697 20.9028 78.5257 20.9028 78.5257C20.9028 78.5257 23.8916 78.3263 24.9448 78.0705C25.9979 77.8147 31.2251 75.9263 33.4295 74.4545C35.634 72.9827 37.5855 70.6984 38.1606 69.7387C38.7358 68.7791 40.6399 64.505 40.6399 64.505C40.6399 64.505 44.3458 65.3267 46.3219 64.2109C48.2981 63.0953 49.6651 62.0785 50.2025 61.0248C50.7399 59.9711 51.2796 57.6147 51.2601 56.6596C51.2407 55.7045 51.0489 53.9863 51.0489 53.9863C51.0489 53.9863 54.6008 52.1405 55.8383 49.9737C57.0683 47.8203 59.2314 42.2893 58.9177 39.1162C58.604 35.9432 58.1483 33.3015 57.4629 31.6404C56.7776 29.9793 55.592 27.6123 54.8893 26.8399C54.1866 26.0675 53.5722 25.5164 53.2793 25.3605C52.9864 25.2047 51.9335 24.8308 51.9335 24.8308C51.9335 24.8308 54.804 24.3809 55.5313 24.1695C56.2587 23.9581 58.6755 23.1063 60.0165 22.0412C61.3575 20.9759 66.2239 15.6429 67.5428 15.6481C68.8617 15.6532 72.1382 16.1665 73.6063 17.0103C75.0744 17.8541 81.7872 22.094 89.6562 21.4562C97.5252 20.8185 102.368 18.831 104.06 17.8275C105.752 16.824 107.95 15.0829 108.428 14.4337C108.907 13.7844 109.921 12.5946 109.921 12.5946C109.921 12.5946 116.025 14.7277 117.745 15.1391C119.466 15.5504 127.321 17.0382 132.117 16.5221C136.914 16.006 142.588 13.9418 143.466 13.3914C144.345 12.841 149.74 8.94947 150.812 8.18966C151.884 7.42986 153.423 7.09749 154.682 7.05C155.941 7.00252 167.752 6.9127 171.516 7.05001C175.28 7.18732 186.671 7.29533 188.062 6.86112C189.453 6.42691 192.204 4.91757 192.937 4.37312C193.67 3.82867 195.488 2.25737 195.488 2.25737L12.3014 2.25734C12.3014 2.25734 12.0223 6.00924 10.728 7.48068C9.43372 8.95211 5.98206 11.7477 5.39986 11.9594C4.81765 12.1711 1.36596 13.23 1.36596 13.23L1.64832 129.373Z" fill="#E2E2E2"/>
<path d="M4.72691 71.7955C5.62949 75.6771 10.5202 79.3939 13.3299 82.1049C17.0792 85.7227 16.8806 93.3185 15.7095 95.5955C14.5386 97.8725 12.6056 100.176 10.2227 100.757C6.6136 101.637 3.1315 101.139 3.01066 102.246C2.8101 104.085 5.46739 105.438 7.23084 106.167C9.4914 107.1 8.93898 119.395 8.93898 119.395C8.93898 119.395 10.0896 114.269 10.4691 112.191C10.8486 110.114 10.991 105.089 10.991 105.089L10.573 103.017C10.573 103.017 13.7845 102.136 15.4029 100.74C17.0213 99.3443 17.9728 98.7254 18.7713 96.6631C19.5697 94.6008 21.2836 87.9292 21.2836 87.9292L20.903 78.5258C20.903 78.5258 15.2284 78.3187 13.045 77.3021C10.8617 76.2856 9.52049 75.9362 8.86556 75.3009C8.21062 74.6655 4.72703 71.7957 4.72703 71.7957L4.72691 71.7955Z" fill="#A2A2A5"/>
<path d="M16.9863 76.5424C21.8944 76.5753 30.3369 74.2352 33.874 68.3041C36.5218 63.8643 36.2434 56.8516 33.2139 53.5603C32.2846 52.5508 29.6642 50.6539 27.3224 52.801C25.3827 54.5795 21.7497 55.4484 21.4085 53.658C20.7346 50.1231 25.9999 45.2456 31.5308 45.4006C38.8689 45.6063 41.8826 49.7727 43.6489 50.9371C46.4765 52.8011 50.5158 54.1774 50.5158 54.1774C50.5158 54.1774 45.1072 56.3755 43.7579 57.8093C42.4087 59.243 42.8563 62.2168 43.8189 62.9607C44.7328 63.6668 46.3222 64.211 46.3222 64.211L44.2592 64.7289L40.3174 64.4441C40.3174 64.4441 39.7503 66.4902 39.3176 67.4054C38.8849 68.3206 37.2658 71.4999 35.8154 72.7662C34.365 74.0324 28.6461 77.3778 27.8586 77.4567C27.0713 77.5358 20.0261 78.5488 20.0261 78.5488L15.6301 78.417L10.2089 76.3404C10.2089 76.3404 15.2136 76.5304 16.9862 76.5423L16.9863 76.5424Z" fill="#A2A2A5"/>
<path d="M1.76345 25.4226C1.76345 25.4226 6.30998 18.2518 11.9655 19.1265C17.621 20.0012 19.2289 22.9378 20.0051 24.1802C20.7814 25.4227 21.5022 28.4722 21.225 29.3192C20.9478 30.1663 19.6171 33.0464 19.6725 32.877C19.728 32.7076 23.0425 31.9209 23.7079 27.7298C24.3732 23.5387 22.0866 18.6838 15.3762 15.0238C11.0035 12.6389 12.3014 2.25723 12.3014 2.25723L1.28259 2.17451L1.40653 12.8305L1.76345 25.4226Z" fill="#A2A2A5"/>
<path d="M1.40651 25.7487C1.52987 24.8206 3.327 22.6627 5.44404 21.3453C7.66565 19.9626 10.209 19.441 10.209 19.441C10.209 19.441 6.13597 22.1316 4.57319 25.2088C3.52664 27.2695 3.21432 33.3126 4.29752 36.6333C5.44475 40.1501 9.76023 46.2333 8.63694 50.125C6.75952 56.629 1.36596 55.0263 1.36596 55.0263C1.36596 55.0263 1.15372 27.6509 1.40651 25.7487Z" fill="#A2A2A5"/>
<path d="M34.1922 22.1302C39.3383 27.6154 48.0666 27.5846 52.0362 30.3229C57.809 34.3049 58.2426 44.4953 58.2426 44.4953C58.2426 44.4953 59.2314 38.9407 58.7495 35.8859C58.2675 32.8312 56.5387 29.3832 55.9641 28.2635C55.3895 27.1437 54.0152 25.8713 54.0152 25.8713C54.0152 25.8713 53.3684 25.4046 53.1348 25.2791C52.9013 25.1535 52.3088 24.9672 52.3088 24.9672C52.3088 24.9672 49.0041 24.9063 48.1812 25.0502C47.3585 25.1939 45.0257 25.0774 42.893 24.7431C41.6679 24.5511 39.144 24.0376 37.0774 23.3628C35.5466 22.863 34.192 22.1304 34.192 22.1304L34.1922 22.1302Z" fill="#A2A2A5"/>
<path d="M56.3098 23.9119C60.0611 20.5106 62.9384 15.8643 64.1316 13.0766C65.3246 10.2889 71.5006 8.64483 73.957 11.1466C76.4133 13.6484 84.9755 21.154 90.3795 21.154C84.884 22.5961 78.6991 19.3581 76.9277 18.6837C75.1564 18.0093 68.8814 15.0736 67.7706 15.5323C66.6597 15.991 65.6689 16.6026 65.0085 17.3365C64.348 18.0704 62.2764 20.3638 61.706 20.7308C61.1356 21.0977 57.7129 23.4218 57.7129 23.4218L56.31 23.912L56.3098 23.9119Z" fill="#A2A2A5"/>
<path d="M105.138 1.68396C112.479 4.75644 121.385 8.99239 131.707 7.88575C141.388 6.84783 146.715 4.39106 149.156 4.25306C151.596 4.11493 169.918 4.66825 172.509 4.11586C175.098 3.56348 175.234 1.90644 175.234 1.90644L105.138 1.68396Z" fill="#A2A2A5"/>
<path d="M20.2097 79.0425C16.2744 79.0425 12.3843 78.0328 9.11062 76.0794C4.85352 73.5392 2.03502 69.6984 0.960176 64.9724C0.90302 64.7214 1.05663 64.4707 1.30312 64.4125C1.54973 64.3546 1.79574 64.5107 1.85289 64.7617C2.86943 69.2317 5.53938 72.8668 9.57381 75.2741C14.4329 78.1736 20.7182 78.9012 26.3867 77.2203C30.5923 75.9735 34.0756 73.8935 36.4601 71.2055C39.194 68.1234 40.3382 64.4376 39.861 60.2504C39.4404 56.5605 38.2953 53.6374 36.4575 51.5623C34.5363 49.3929 32.3592 48.7187 30.8712 48.5354C27.8153 48.1583 24.8969 49.5545 24.0822 51.7824C23.9939 52.024 23.7299 52.1468 23.4929 52.0569C23.2558 51.9669 23.1351 51.6981 23.2234 51.4566C24.1974 48.7928 27.46 47.1745 30.9812 47.6089C32.6245 47.8115 35.0266 48.5535 37.1378 50.9373C39.1057 53.1593 40.3281 56.2564 40.771 60.1428C41.2728 64.5457 40.0171 68.5875 37.1397 71.8312C34.6414 74.6477 31.0115 76.8212 26.6426 78.1164C24.5484 78.7374 22.372 79.0425 20.2097 79.0425Z" fill="black"/>
<path d="M45.8508 55.4935C44.3498 55.4935 42.7967 55.2701 41.2451 54.8172C41.0018 54.7463 40.8612 54.4879 40.9309 54.2401C41.0005 53.9923 41.2538 53.849 41.4975 53.92C45.4421 55.0714 49.3817 54.658 52.3055 52.7862C55.4078 50.8002 57.4047 47.2703 58.2404 42.2945C59.1356 36.9644 57.1598 30.7152 54.8462 27.5413C53.9358 26.2925 52.9983 25.5493 52.2062 25.4488C51.9551 25.4169 51.7769 25.1838 51.8082 24.928C51.8395 24.6723 52.0678 24.4905 52.3195 24.5227C53.3774 24.657 54.5055 25.5085 55.5817 26.985C58.0086 30.3141 60.0817 36.8663 59.1435 42.4519C58.262 47.7003 56.1254 51.4431 52.7932 53.5764C50.812 54.8447 48.4076 55.4935 45.8508 55.4935Z" fill="black"/>
<path d="M129.148 17.1371C125.994 17.1371 122.603 16.7413 119.075 15.9514C112.955 14.581 106.928 12.1094 102.105 8.9919C101.891 8.85378 101.828 8.56551 101.964 8.34782C102.099 8.13025 102.382 8.06572 102.596 8.20385C107.331 11.2645 113.254 13.6923 119.272 15.0398C125.684 16.4755 131.62 16.5857 136.439 15.359C144.282 13.362 146.807 11.0199 148.836 9.13797C149.676 8.35856 150.402 7.68554 151.373 7.1552C153.064 6.23218 160.355 6.30918 171.286 6.53188C178.681 6.68249 186.329 6.83836 188.236 6.25576C192.303 5.01321 195.593 1.45169 195.625 1.41587C195.798 1.22735 196.088 1.21663 196.273 1.39209C196.458 1.56755 196.469 1.86268 196.296 2.05132C196.156 2.20508 192.81 5.83276 188.5 7.14962C186.455 7.77445 179.078 7.62406 171.267 7.46494C162.898 7.29438 153.412 7.10107 151.806 7.97766C150.935 8.4534 150.248 9.09038 149.453 9.8279C147.459 11.6774 144.728 14.2103 136.661 16.2643C134.375 16.8464 131.849 17.1369 129.148 17.1369L129.148 17.1371Z" fill="black"/>
<path d="M48.0041 25.5208C46.5237 25.5208 45.0014 25.4348 43.4863 25.2574C39.6536 24.8087 32.7526 23.3797 29.5942 18.8506C29.4477 18.6405 29.4961 18.3492 29.7024 18.1999C29.9089 18.0505 30.1947 18.1001 30.3413 18.3101C32.4979 21.4025 37.3271 23.5968 43.5909 24.3301C49.0328 24.9672 54.7599 24.3663 57.842 22.8347C60.3065 21.6097 62.5382 19.2972 64.1678 17.6085C65.6212 16.1024 66.4105 15.3125 67.0743 15.2266C70.1216 14.832 73.0642 16.2116 76.1795 17.6725C80.0657 19.4948 84.4706 21.5605 90.2742 20.9331C101.128 19.7603 107.228 17.1222 108.925 12.8679C109.02 12.6292 109.287 12.5142 109.522 12.6112C109.756 12.7082 109.869 12.9804 109.774 13.2191C107.938 17.8218 101.591 20.6486 90.3708 21.861C84.3166 22.5154 79.79 20.3929 75.7962 18.5201C72.6736 17.0558 69.977 15.791 67.1898 16.1523C66.8103 16.2014 65.7534 17.2965 64.8212 18.2625C63.1451 19.9994 60.8497 22.3781 58.2436 23.6732C55.84 24.8677 52.0818 25.5205 48.0041 25.5205L48.0041 25.5208Z" fill="black"/>
<path d="M51.0964 54.3686C51.0964 54.3686 51.1117 54.4979 51.141 54.744C51.1545 54.8672 51.1767 55.019 51.1927 55.1994C51.2043 55.3801 51.2177 55.5887 51.2328 55.8235C51.2431 56.0585 51.2383 56.3201 51.2422 56.6061C51.2346 56.7489 51.2268 56.8978 51.2187 57.0527C51.2145 57.1302 51.2102 57.2091 51.2059 57.2895C51.1987 57.3696 51.1874 57.4508 51.1781 57.5337C51.1562 57.699 51.1439 57.8716 51.112 58.0467C51.0796 58.2217 51.0462 58.402 51.0117 58.5878C50.9647 58.7706 50.9166 58.9585 50.8671 59.1515C50.8088 59.3417 50.7409 59.5343 50.6759 59.733C50.3867 60.5167 49.9354 61.326 49.3003 62.0663C49.2227 62.1604 49.1333 62.245 49.0493 62.3358C48.9647 62.4262 48.8787 62.5168 48.7833 62.5985C48.6901 62.6827 48.5962 62.7676 48.5016 62.853C48.4013 62.9316 48.3004 63.0109 48.1988 63.0908C47.7837 63.3977 47.3329 63.6837 46.8383 63.9109C44.8716 64.8496 42.3328 64.9973 39.9472 64.2206C39.9301 64.2747 39.9178 64.3139 39.8975 64.378C42.3208 65.1673 44.9021 65.0065 46.8962 64.0373C47.3976 63.8027 47.8542 63.5081 48.2737 63.1925C48.3763 63.1103 48.4782 63.0288 48.5794 62.9479C48.6748 62.8602 48.7696 62.7731 48.8635 62.6866C48.9597 62.6025 49.0462 62.5098 49.1314 62.4171C49.2158 62.3239 49.3058 62.237 49.3837 62.1409C50.0216 61.3826 50.4695 60.5571 50.752 59.7617C50.8154 59.5602 50.8815 59.3648 50.9378 59.1722C50.9852 58.977 51.0314 58.7869 51.0763 58.602C51.1085 58.4145 51.1398 58.2324 51.17 58.0558C51.1996 57.8792 51.2095 57.7055 51.2293 57.539C51.2375 57.4556 51.2476 57.3738 51.2538 57.2932C51.257 57.2123 51.2601 57.133 51.2632 57.0552C51.269 56.8996 51.2746 56.7499 51.28 56.6065C51.2717 56.3197 51.2724 56.0573 51.2582 55.8221C51.2392 55.5872 51.2223 55.3786 51.2077 55.1977C51.1885 55.0175 51.1637 54.8658 51.148 54.743C51.1142 54.4974 51.0964 54.3686 51.0964 54.3686Z" fill="black"/>
<path d="M7.34831 103.98C6.10315 103.98 4.95159 103.763 3.9709 103.329C3.73884 103.226 3.63252 102.951 3.73343 102.715C3.83434 102.478 4.10444 102.37 4.33639 102.473C5.24308 102.874 6.26936 103.055 7.34305 103.055C11.0995 103.055 15.444 100.846 17.3472 98.1635C18.9042 95.9689 20.065 92.5718 20.6157 88.5981C21.1087 85.0421 21.0535 81.3644 20.4683 78.7604C20.4118 78.5092 20.566 78.2589 20.8126 78.2013C21.0592 78.1434 21.305 78.3009 21.3615 78.552C22.6165 84.1362 21.5815 93.7882 18.0899 98.71C16.7603 100.584 14.3624 102.263 11.6757 103.201C10.1901 103.719 8.71305 103.979 7.34831 103.979L7.34831 103.98Z" fill="black"/>
<path d="M5.51287 133.952C5.13982 133.952 4.7606 133.879 4.3856 133.73C2.47645 132.973 1.1597 130.519 0.949407 127.326C0.932455 127.069 1.12335 126.847 1.37591 126.829C1.6271 126.812 1.8467 127.007 1.86377 127.264C2.00305 129.379 2.83425 132.113 4.7182 132.861C5.53487 133.184 6.35268 133.006 7.02079 132.358C8.23778 131.177 8.28599 128.588 8.35277 125.003C8.38507 123.268 8.42182 121.301 8.59661 119.122C8.7604 117.082 9.20449 115.109 9.63401 113.201C10.4149 109.731 11.1526 106.454 10.1477 103.193C10.0719 102.947 10.2063 102.685 10.4477 102.608C10.6893 102.531 10.9463 102.667 11.022 102.913C12.1013 106.416 11.3367 109.813 10.5272 113.409C10.1049 115.286 9.66826 117.225 9.50997 119.198C9.33735 121.348 9.30104 123.299 9.26897 125.021C9.19796 128.831 9.14666 131.584 7.65283 133.034C7.02848 133.639 6.28395 133.952 5.51299 133.952L5.51287 133.952Z" fill="black"/>
<path d="M14.0134 36.072C12.7518 36.072 11.5327 35.7051 10.4663 34.9886C10.2551 34.8467 10.1966 34.5573 10.336 34.3422C10.4752 34.1269 10.7593 34.0674 10.9707 34.2095C12.6944 35.3674 14.4216 35.2387 15.5674 34.9266C17.0827 34.5141 18.5121 33.5131 19.4892 32.1803C21.283 29.7336 21.7769 25.8994 17.7835 22.4756C15.4678 20.4903 12.9843 19.6494 10.4014 19.9758C5.76304 20.5626 2.62853 24.5329 1.7783 25.7358C1.63043 25.945 1.34408 25.9926 1.13883 25.8418C0.933457 25.6912 0.886819 25.3997 1.03469 25.1905C3.45033 21.7727 6.90983 19.4771 10.2886 19.0496C13.1345 18.6899 15.8549 19.6019 18.3738 21.7616C20.3283 23.4374 21.4784 25.4227 21.6997 27.5027C21.8928 29.3175 21.3684 31.1769 20.2234 32.7387C19.1255 34.2364 17.5146 35.3625 15.804 35.8282C15.2055 35.991 14.6048 36.0717 14.0136 36.0718L14.0134 36.072Z" fill="black"/>
<path d="M42.8392 65.2198C42.0983 65.2198 41.3309 65.1342 40.5435 64.9611C40.2962 64.9068 40.1389 64.6584 40.1923 64.4065C40.2457 64.1547 40.4895 63.9952 40.7368 64.0488C43.7482 64.7111 46.4256 63.9681 48.2758 61.9569C50.1111 59.9621 50.8173 56.9588 50.075 54.3054C50.0057 54.0575 50.1467 53.7993 50.39 53.7287C50.6334 53.6582 50.8868 53.8018 50.9562 54.0496C51.7849 57.0118 50.9951 60.3661 48.9444 62.595C47.3557 64.3217 45.2386 65.2199 42.8391 65.2199L42.8392 65.2198Z" fill="black"/>
</g>
<path d="M2.64029 72.573C3.12685 73.8944 3.89144 74.7204 4.67913 74.8147C5.46682 74.9091 5.86105 74.5196 6.09242 74.1068C6.32379 73.6941 6.50943 72.219 6.53257 71.2516C6.55571 70.2841 6.74105 66.6501 6.94962 65.5883C7.15809 64.5265 7.93836 60.6329 7.89575 59.925C7.85326 59.2171 7.61248 57.8897 7.61248 57.8897C7.61248 57.8897 8.87266 57.5889 9.45177 57.2114C9.45177 57.2114 11.314 56.145 11.9754 54.7979C12.6366 53.451 13.5737 50.5092 13.6424 48.802C13.6961 47.4677 13.498 45.4357 13.4088 44.6117C13.3838 44.3813 13.3674 44.2452 13.3674 44.2452C13.3674 44.2452 15.0326 44.1341 15.6192 43.9916C16.206 43.849 19.1182 42.797 20.3463 41.977C21.5744 41.157 22.6616 39.8843 22.9821 39.3497C23.3026 38.815 24.3634 36.4339 24.3634 36.4339C24.3634 36.4339 26.4279 36.8916 27.5289 36.2701C28.6298 35.6485 29.3914 35.082 29.6908 34.495C29.9902 33.9079 30.2909 32.5952 30.28 32.0631C30.2691 31.531 30.1623 30.5738 30.1623 30.5738C30.1623 30.5738 32.1412 29.5454 32.8306 28.3384C33.5158 27.1386 34.7209 24.0573 34.5462 22.2894C34.3714 20.5217 34.1174 19.0499 33.7357 18.1245C33.3538 17.1991 32.6935 15.8803 32.302 15.45C31.9105 15.0196 31.5681 14.7126 31.405 14.6258C31.2419 14.539 30.6553 14.3306 30.6553 14.3306C30.6553 14.3306 32.2546 14.08 32.6597 13.9622C33.065 13.8444 34.4114 13.3699 35.1584 12.7765C35.9055 12.183 38.6167 9.21192 39.3515 9.21472C40.0862 9.21752 41.9116 9.50359 42.7295 9.97361C43.5474 10.4436 47.2874 12.8058 51.6712 12.4505C56.0553 12.0952 58.753 10.988 59.6957 10.4289C60.6385 9.86989 61.8628 8.89986 62.1295 8.53809C62.3961 8.17633 62.9613 7.51359 62.9613 7.51359C62.9613 7.51359 66.3618 8.70201 67.3202 8.93125C68.2787 9.16049 72.6548 9.98924 75.327 9.70179C77.9992 9.41434 81.1608 8.26431 81.6501 7.95761C82.1394 7.65092 85.145 5.4829 85.7425 5.05965C86.3399 4.63641 87.1971 4.45117 87.8984 4.42469C88.5997 4.3982 95.1801 4.34816 97.277 4.42469C99.3738 4.50122 105.72 4.5614 106.495 4.31945C107.27 4.0775 108.803 3.2366 109.211 2.93329C109.62 2.62997 110.632 1.75455 110.632 1.75455L8.57534 1.75453C8.57534 1.75453 8.41976 3.84474 7.69873 4.66463C6.97759 5.4844 5.05469 7.04181 4.73031 7.15975C4.40594 7.27769 2.48303 7.86766 2.48303 7.86766L2.64029 72.573Z" fill="#E2E2E2"/>
<path d="M236.004 1.37989C236.427 2.1411 237.711 4.2144 239.452 5.12341C241.194 6.03243 247.136 7.25178 250.336 7.45127C253.536 7.65076 257.302 7.22959 259.152 6.98565C261.002 6.74183 267.227 5.94365 268.925 6.23192C270.623 6.52019 271.102 7.0966 272.538 7.78385C273.975 8.47109 278.285 11.198 279.787 11.6636C281.289 12.1292 282.464 12.4706 283.705 12.3996C284.946 12.3287 285.787 12.0558 286.219 11.7838C286.651 11.5117 287.351 10.8314 287.351 10.8314L287.908 11.0315C287.908 11.0315 290.095 11.6017 291.136 11.346C292.177 11.0901 295.637 9.19347 296.414 8.59617C297.192 7.99876 298.189 7.3268 298.746 7.40146C299.303 7.47612 303.672 8.93962 304.611 8.96948C305.549 8.99935 306.048 9.19346 306.048 9.19346C306.048 9.19346 305.364 11.9115 305.559 13.1062C305.755 14.301 306.1 16.6858 307.404 18.4087C308.708 20.1315 311.297 22.6224 313.722 22.9545C316.147 23.2866 317.411 23.2866 318.511 22.8507C319.612 22.4147 320.834 21.6883 321.487 21.0032C322.139 20.3182 322.922 19.1208 322.922 19.1208L323.269 18.4403C323.269 18.4403 323.153 20.0365 323.45 20.7253C323.747 21.4142 324.3 22.3635 325.306 22.5063C326.312 22.649 327.311 22.3887 327.64 22.7078C327.97 23.027 329.133 25.0013 329.422 25.7069C329.711 26.4126 330.89 28.1684 331.566 28.5717C332.243 28.975 333.675 29.2114 334.003 29.2239C334.33 29.2364 334.824 29.3475 334.824 29.3475C334.824 29.3475 334.084 31.1526 333.975 31.958C333.866 32.7634 333.798 36.082 334.466 37.665C335.134 39.2479 336.634 40.8726 337.084 41.7335C337.534 42.5945 337.534 43.8025 337.329 44.2746C337.125 44.7467 335.461 47.5795 334.78 48.607C334.098 49.6345 332.913 52.0785 332.953 54.078C332.994 56.0776 333.743 58.2854 334.221 59.0908C334.698 59.8962 335.475 61.243 336.702 61.8263C337.929 62.4095 338.842 62.6711 339.606 62.693C340.369 62.7149 340.806 62.693 340.806 62.693C340.806 62.693 341.174 64.2424 341.664 65.0339C342.155 65.8254 343.273 68.0333 343.328 69.769C343.382 71.5048 343.041 76.6981 342.905 77.3645C342.769 78.031 342.591 79.2808 342.646 79.5446C342.7 79.8083 343.191 84.3213 343.123 85.1683C343.055 86.0154 342.782 89.3618 342.796 89.9173C342.81 90.4727 342.858 91.2246 343.016 91.5182C343.175 91.8119 343.508 92.1574 343.763 92.3359C344.017 92.5144 344.396 92.6535 344.548 92.6703C344.701 92.6871 345.035 92.6641 345.221 92.5835C345.408 92.5028 346.4 91.5839 346.4 91.5839L346.4 6.94252L346.055 1.7089L339.808 1.31494L236.004 1.37978L236.004 1.37989Z" fill="#E2E2E2"/>
<path d="M4.35548 40.4958C4.85831 42.6583 7.58301 44.729 9.14831 46.2394C11.2372 48.2549 11.1264 52.4868 10.4741 53.7552C9.82166 55.0238 8.74475 56.3071 7.41724 56.6308C5.40649 57.1208 3.46652 56.8436 3.39929 57.4604C3.2875 58.4847 4.76808 59.2389 5.75048 59.6446C7.00985 60.1646 6.7022 67.0146 6.7022 67.0146C6.7022 67.0146 7.34327 64.1586 7.55471 63.0011C7.76615 61.8436 7.84542 59.044 7.84542 59.044L7.61254 57.8898C7.61254 57.8898 9.40178 57.399 10.3033 56.6213C11.205 55.8436 11.735 55.4989 12.1799 54.3499C12.6248 53.2009 13.5796 49.4842 13.5796 49.4842L13.3676 44.2453C13.3676 44.2453 10.2061 44.1299 8.98976 43.5636C7.77335 42.9973 7.02619 42.8027 6.66127 42.4486C6.29634 42.0946 4.35548 40.4958 4.35548 40.4958Z" fill="#A2A2A5"/>
<path d="M11.1854 43.141C13.9198 43.1593 18.6233 41.8555 20.5939 38.5512C22.069 36.0777 21.9139 32.1707 20.2261 30.3371C19.7084 29.7747 18.2484 28.7178 16.9438 29.9141C15.8631 30.9049 13.8392 31.389 13.6491 30.3914C13.2738 28.4221 16.2071 25.7047 19.2885 25.7911C23.3767 25.9056 25.0556 28.2268 26.0396 28.8756C27.6149 29.9141 29.8653 30.6809 29.8653 30.6809C29.8653 30.6809 26.8521 31.9055 26.1004 32.7042C25.3487 33.503 25.598 35.1598 26.1343 35.5742C26.6435 35.9676 27.5289 36.2708 27.5289 36.2708L26.3796 36.5593L24.1835 36.4006C24.1835 36.4006 23.8676 37.5405 23.6265 38.0504C23.3854 38.5604 22.4834 40.3316 21.6753 41.037C20.8673 41.7425 17.6811 43.6063 17.2425 43.6502C16.8038 43.6942 12.8788 44.2586 12.8788 44.2586L10.4297 44.1852L7.40954 43.0283C7.40954 43.0283 10.1978 43.1342 11.1853 43.1408L11.1854 43.141Z" fill="#A2A2A5"/>
<path d="M2.70431 14.6609C2.70431 14.6609 5.23736 10.6658 8.38812 11.1532C11.5389 11.6405 12.4347 13.2766 12.8672 13.9687C13.2997 14.6609 13.7013 16.3598 13.5468 16.8318C13.3924 17.3037 12.6509 18.9084 12.6819 18.8139C12.7128 18.7194 14.5593 18.2812 14.9301 15.9462C15.3007 13.6113 14.0268 10.9065 10.2883 8.86741C7.85218 7.53877 8.57543 1.75487 8.57543 1.75487L2.43665 1.70879L2.50572 7.64538L2.70454 14.6607L2.70431 14.6609Z" fill="#A2A2A5"/>
<path d="M2.50565 14.8411C2.57437 14.3241 3.57558 13.1219 4.755 12.3879C5.99272 11.6176 7.40966 11.327 7.40966 11.327C7.40966 11.327 5.1405 12.826 4.26977 14.5404C3.68676 15.6884 3.5128 19.0552 4.11619 20.9051C4.75532 22.8644 7.15962 26.2535 6.53377 28.4216C5.4878 32.0451 2.48294 31.1522 2.48294 31.1522C2.48294 31.1522 2.36477 15.9008 2.50553 14.841L2.50565 14.8411Z" fill="#A2A2A5"/>
<path d="M20.7711 12.8269C23.6382 15.8828 28.5008 15.8657 30.7124 17.3912C33.9285 19.6096 34.1701 25.287 34.1701 25.287C34.1701 25.287 34.721 22.1924 34.4525 20.4905C34.1839 18.7887 33.2208 16.8677 32.9007 16.2439C32.5805 15.6201 31.815 14.9111 31.815 14.9111C31.815 14.9111 31.4546 14.6511 31.3245 14.5812C31.1944 14.5114 30.8643 14.4075 30.8643 14.4075C30.8643 14.4075 29.0231 14.3736 28.5647 14.4537C28.1063 14.5339 26.8067 14.4689 25.6186 14.2827C24.936 14.1757 23.5299 13.8895 22.3786 13.5137C21.5257 13.2352 20.771 12.827 20.771 12.827L20.7711 12.8269Z" fill="#A2A2A5"/>
<path d="M33.0933 13.8179C35.1832 11.923 36.7862 9.33438 37.4509 7.78128C38.1156 6.22819 41.5564 5.31231 42.9249 6.70605C44.2934 8.09991 49.0636 12.2814 52.0742 12.2814C49.0126 13.0848 45.5669 11.2809 44.58 10.9051C43.5931 10.5293 40.0973 8.89388 39.4784 9.14936C38.8595 9.40497 38.3076 9.74561 37.9396 10.1545C37.5715 10.5634 36.4174 11.8411 36.0996 12.0456C35.7817 12.2501 33.875 13.5448 33.875 13.5448L33.0935 13.8179L33.0933 13.8179Z" fill="#A2A2A5"/>
<path d="M60.2966 1.43427C64.3863 3.14602 69.3481 5.50596 75.0985 4.88941C80.4919 4.31113 83.4599 2.94246 84.8195 2.86558C86.1791 2.7887 96.3868 3.09691 97.8298 2.78916C99.2728 2.48142 99.3483 1.55828 99.3483 1.55828L60.2966 1.43427Z" fill="#A2A2A5"/>
<path d="M271.609 6.94282C273.907 7.98786 278.991 10.1033 281.289 10.2957C283.588 10.4881 285.239 10.7043 286.245 9.40132C287.067 8.33726 286.722 6.79666 285.404 5.98342C284.677 5.5351 283.084 5.64602 283.62 5.06096C284.143 4.49073 286.839 4.89952 287.98 6.06659C288.598 6.69912 288.816 7.80635 288.917 8.62671C289.018 9.44706 289.349 10.0916 290.436 10.112C291.815 10.1378 293.209 9.52103 294.036 9.15646C295.626 8.45569 298.101 7.53148 298.101 7.53148C298.101 7.53148 294.035 10.0538 293.078 10.5117C292.121 10.9695 289.923 11.4576 289.384 11.3463C288.845 11.235 287.351 10.8317 287.351 10.8317C287.351 10.8317 287.119 11.1629 286.725 11.4359C286.518 11.5788 285.707 12.0744 284.729 12.3032C283.839 12.5114 282.799 12.4679 282.206 12.3378C280.96 12.0647 278.887 11.3247 277.979 10.8296C277.071 10.3345 272.707 7.86759 272.707 7.86759L270.584 6.70016L271.609 6.94293L271.609 6.94282Z" fill="#A2A2A5"/>
<path d="M289.894 1.53927C290.867 2.93908 292.816 3.85134 294.338 3.65944C296.307 3.41119 297.981 2.40557 299.315 2.47709C300.65 2.5486 304.336 3.33921 305.968 3.05304C307.6 2.76687 311.044 1.31493 311.044 1.31493L291.107 1.50649L289.894 1.53927Z" fill="#A2A2A5"/>
<path d="M314.135 5.19205C313.733 7.3211 311.044 9.20623 309.732 11.1519C309.03 12.1917 307.797 14.6159 309.26 17.7102C310.321 19.9541 312.623 21.8447 315.145 22.457C317.615 23.0561 320.125 22.0196 320.125 22.0196C320.125 22.0196 317.794 23.4791 315.663 23.2003C313.532 22.9214 311.045 21.9314 309.597 20.7492C308.15 19.5669 306.982 17.734 306.52 16.4707C306.058 15.2073 305.57 12.4472 305.57 12.4472L306.079 9.01033C306.079 9.01033 307.566 8.98154 308.539 8.62655C309.512 8.27155 310.996 7.69338 311.677 7.22312C312.358 6.75286 313.478 5.82388 313.478 5.82388L314.135 5.19205Z" fill="#A2A2A5"/>
<path d="M322.587 19.3881C323.414 17.4372 323.332 15.6363 323.07 14.7163C322.634 13.1862 320.78 12.9144 321.52 12.1164C322.26 11.3183 323.321 12.3962 323.971 13.4924C325.143 15.4661 324.432 18.1144 324.438 19.3815C324.443 20.3139 325.358 21.3717 326.338 21.3052C327.317 21.2387 328.851 21.5771 329.417 22.7521C329.983 23.9271 330.378 25.5266 331.667 27.2674C332.615 28.5496 334.003 29.2236 334.003 29.2236C334.003 29.2236 331.99 29.3774 331.033 28.2958C330.075 27.2142 328.595 23.8221 328.399 23.5118C328.203 23.2015 327.615 22.492 327.115 22.5363C326.614 22.5806 325.476 22.607 324.894 22.3147C324.313 22.0223 323.947 21.558 323.689 21.2126C323.431 20.8671 323.266 20.0619 323.249 19.8229C323.231 19.584 323.25 18.7116 323.25 18.7116L323.291 18.3195L322.587 19.3881Z" fill="#A2A2A5"/>
<path d="M334.993 29.2237C337.673 28.0795 337.831 28.1116 338.367 27.5013C338.903 26.8909 339.566 25.7667 339.786 25.349C340.007 24.9314 340.112 23.7262 340.112 23.7262C340.112 23.7262 340.984 26.5602 339.983 28.1004C339.323 29.1141 337.68 29.3954 336.677 32.0189C335.906 34.0353 336.079 36.024 337.372 37.6623C338.666 39.3006 339.934 40.9514 339.748 42.6527C339.605 43.9637 338.634 45.3369 337.15 47.6874C336.648 48.4818 334.824 50.0008 333.693 53.2227C333.247 54.4963 333.026 56.1777 333.026 56.1777C333.026 56.1777 332.844 54.7814 332.953 53.5554C333.076 52.1782 333.51 50.9238 333.87 50.3108C334.551 49.1523 335.867 46.8938 336.407 45.935C336.948 44.9763 337.421 44.0126 337.516 43.3701C337.61 42.7277 337.447 42.1527 336.677 41.0954C335.907 40.0381 334.89 38.805 334.488 37.4915C334.086 36.178 333.757 34.6183 333.91 33.0786C334.062 31.5389 334.993 29.2237 334.993 29.2237Z" fill="#A2A2A5"/>
<path d="M343.44 59.6011C344.065 61.3095 342.945 62.5216 342.739 63.2409C342.533 63.9603 343.506 65.1159 343.977 67.1839C344.448 69.252 344.419 71.1583 344.124 73.532C343.83 75.9057 342.646 79.5435 342.646 79.5435C342.646 79.5435 342.977 76.3253 343.124 74.9166C343.271 73.508 343.212 68.6525 343.094 68.0831C342.977 67.5136 341.299 64.0968 341.299 64.0968L340.806 62.6919C340.806 62.6919 341.529 62.4411 341.935 62.1789C342.34 61.9166 342.707 61.702 342.933 61.3125C343.16 60.9231 343.347 60.2793 343.347 60.2793L343.44 59.6009L343.44 59.6011Z" fill="#A2A2A5"/>
<path d="M330.184 5.57246C332.126 5.53525 333.695 4.28266 335.181 4.17895C336.381 4.09519 337.674 5.04214 337.911 5.79553C338.441 7.4815 339.069 9.39239 341.319 9.42926C344.129 9.47522 347.115 5.44646 347.115 5.44646C347.115 5.44646 347.134 2.65024 346.53 1.46276C345.925 0.275273 339.986 1.46276 339.986 1.46276L323.741 1.77249C323.741 1.77249 326.675 5.63989 330.184 5.57258L330.184 5.57246Z" fill="#A2A2A5"/>
<path d="M12.9821 44.7401C10.7534 44.7401 8.54993 44.168 6.69519 43.0612C4.27417 41.6166 2.67105 39.4314 2.0593 36.7417C2.00214 36.4906 2.15576 36.2399 2.40225 36.1817C2.64885 36.1237 2.89497 36.2799 2.95201 36.5309C3.50547 38.9645 4.96002 40.9442 7.15838 42.2559C9.81834 43.8431 13.2603 44.241 16.3657 43.3201C18.6727 42.6361 20.5808 41.4981 21.884 40.029C23.3662 38.358 23.9865 36.3591 23.7277 34.0881C23.111 28.6772 19.8739 27.8633 18.8965 27.7427C17.2843 27.5434 15.7508 28.2644 15.3287 29.4187C15.2404 29.6603 14.9764 29.783 14.7394 29.6931C14.5023 29.6032 14.3816 29.3344 14.4699 29.093C15.045 27.5205 16.9526 26.5628 19.0065 26.8162C20.152 26.9575 23.9437 27.8916 24.6377 33.9804C24.9242 36.4942 24.2071 38.8021 22.5638 40.6547C21.1466 42.2522 19.0918 43.4838 16.6218 44.2162C15.437 44.5674 14.2055 44.74 12.982 44.74L12.9821 44.7401Z" fill="black"/>
<path d="M27.266 31.6205C26.4111 31.6205 25.527 31.4935 24.6446 31.2359C24.4013 31.165 24.2607 30.9065 24.3303 30.6588C24.4 30.4109 24.6534 30.2677 24.8969 30.3387C25.9107 30.6345 28.5104 31.1674 30.7546 29.7306C32.432 28.6568 33.5135 26.7374 33.9689 24.0257C34.4581 21.1127 33.3789 17.6982 32.115 15.9644C31.648 15.3238 31.1623 14.9288 30.7821 14.8805C30.5311 14.8486 30.3528 14.6154 30.3842 14.3597C30.4155 14.104 30.6446 13.9227 30.8955 13.9544C31.5412 14.0364 32.2173 14.5391 32.8507 15.408C34.2278 17.2972 35.4043 21.0147 34.8721 24.1831C34.3709 27.1675 33.1495 29.2998 31.2422 30.5209C30.1058 31.2484 28.7287 31.6205 27.266 31.6205Z" fill="black"/>
<path d="M73.6728 10.2513C71.9012 10.2513 69.9971 10.0291 68.0178 9.58593C64.5855 8.81748 61.2046 7.43075 58.4982 5.68131C58.2845 5.54319 58.2212 5.25492 58.3568 5.03723C58.4923 4.81954 58.7755 4.75516 58.9891 4.89329C64.5978 8.51839 72.4607 10.1836 77.6856 8.85355C82.0052 7.75357 83.3912 6.4682 84.5047 5.43541C84.9629 5.01041 85.3958 4.60899 85.9592 4.30147C86.9472 3.76215 90.8469 3.80123 97.1528 3.92968C101.258 4.01344 105.502 4.09987 106.534 3.78442C108.744 3.10908 110.542 1.1647 110.56 1.1451C110.733 0.956696 111.023 0.946205 111.208 1.12166C111.393 1.29712 111.403 1.59214 111.231 1.78078C111.151 1.86816 109.251 3.92874 106.797 4.6784C105.628 5.03585 101.692 4.95559 97.1346 4.86285C92.7262 4.77302 87.24 4.66114 86.3921 5.12405C85.9288 5.37697 85.5548 5.72391 85.1218 6.12546C83.9949 7.17061 82.4516 8.60203 77.9079 9.75895C76.6185 10.0872 75.1946 10.2511 73.6729 10.2511L73.6728 10.2513Z" fill="black"/>
<path d="M28.46 14.921C27.6289 14.921 26.7753 14.8728 25.9258 14.7733C23.757 14.5193 19.8492 13.7069 18.0441 11.1183C17.8976 10.9082 17.9461 10.6169 18.1523 10.4676C18.3589 10.3182 18.6447 10.3678 18.7913 10.5778C21.504 14.468 30.6765 14.6134 33.858 13.0326C35.1999 12.3657 36.429 11.0919 37.3266 10.1618C38.1921 9.26493 38.6275 8.83129 39.0649 8.77459C40.8205 8.54711 42.4854 9.32792 44.2481 10.1546C46.3894 11.1587 48.8163 12.2963 51.9942 11.9534C57.9596 11.3087 61.3039 9.88067 62.2184 7.58783C62.3137 7.34903 62.5808 7.23421 62.8153 7.33104C63.0497 7.4281 63.1625 7.70029 63.0674 7.93898C62.0138 10.5804 58.4234 12.1971 52.0908 12.8813C48.662 13.252 46.1133 12.0566 43.8648 11.0022C42.1571 10.2015 40.6817 9.50967 39.1901 9.69913C38.9933 9.76586 38.4318 10.3478 37.9801 10.8159C37.0359 11.7942 35.743 13.1342 34.2598 13.8712C32.8945 14.5497 30.765 14.921 28.46 14.921Z" fill="black"/>
<path d="M30.1887 30.7861C30.1887 30.7861 30.1967 30.8582 30.212 30.9955C30.219 31.0642 30.2308 31.1488 30.2391 31.2494C30.2449 31.3501 30.2516 31.4663 30.2591 31.597C30.2641 31.7278 30.2605 31.8735 30.2617 32.0327C30.257 32.1121 30.2521 32.1949 30.2471 32.2811C30.2433 32.3673 30.2364 32.4566 30.2229 32.5485C30.1839 32.9169 30.1008 33.334 29.9375 33.7687C29.775 34.2028 29.5227 34.65 29.1695 35.0585C28.8129 35.4632 28.3495 35.8204 27.8036 36.0746C26.714 36.5909 25.309 36.6702 23.9882 36.2402C23.9711 36.2944 23.9587 36.3336 23.9385 36.3976C25.2969 36.8401 26.7444 36.7476 27.8615 36.2009C28.4211 35.9317 28.8937 35.5556 29.253 35.1329C29.6091 34.7064 29.8578 34.2429 30.0138 33.7973C30.1705 33.3509 30.2443 32.9265 30.2741 32.5538C30.2853 32.4608 30.2898 32.3706 30.2914 32.2836C30.2942 32.1968 30.2968 32.1133 30.2993 32.0332C30.2938 31.8732 30.2932 31.7269 30.2845 31.5957C30.2731 31.4649 30.2629 31.3487 30.254 31.2479C30.2427 31.1474 30.2283 31.0631 30.219 30.9946C30.1992 30.858 30.1887 30.7861 30.1887 30.7861Z" fill="black"/>
<path d="M5.81194 58.6375C5.11966 58.6375 4.45228 58.5188 3.85347 58.2536C3.62141 58.1508 3.51509 57.876 3.616 57.6395C3.71703 57.4033 3.98701 57.2953 4.21896 57.3977C6.05079 58.2091 9.64242 57.2922 11.2222 55.0654C13.0031 52.555 13.5914 47.3761 12.9276 44.4227C12.8711 44.1716 13.0254 43.9212 13.272 43.8637C13.5184 43.8059 13.7644 43.9632 13.8208 44.2144C14.5297 47.3686 13.9419 52.8252 11.9648 55.6119C10.7878 57.2711 8.15886 58.6373 5.81194 58.6375Z" fill="black"/>
<path d="M4.79613 75.3315C4.56304 75.3315 4.32618 75.2857 4.09172 75.1928C2.95388 74.7414 2.17096 73.3059 2.04852 71.4461C2.03168 71.189 2.22252 70.9665 2.47508 70.9492C2.72626 70.9328 2.94587 71.1265 2.96293 71.3837C3.08068 73.1721 3.82379 74.0849 4.42432 74.3231C4.80734 74.475 5.17707 74.3929 5.49355 74.0859C6.11023 73.4877 6.13648 72.081 6.17279 70.134C6.19088 69.1642 6.21137 68.0651 6.30931 66.8447C6.40174 65.6935 6.65075 64.5868 6.89174 63.5165C7.32046 61.6115 7.72549 59.8123 7.18211 58.049C7.10629 57.8031 7.2406 57.5411 7.48205 57.464C7.72362 57.3869 7.98066 57.5237 8.05637 57.7696C8.6742 59.7744 8.2221 61.7828 7.7849 63.7251C7.55124 64.7631 7.30971 65.8366 7.22266 66.9207C7.12702 68.112 7.10686 69.1956 7.08899 70.1518C7.04845 72.3248 7.01922 73.8948 6.12558 74.7617C5.73832 75.1375 5.27581 75.3315 4.79635 75.3315L4.79613 75.3315Z" fill="black"/>
<path d="M147.832 1.72983C148.036 2.60594 148.884 4.74724 150.258 6.19837C151.632 7.64939 154.354 9.04873 156.084 9.67052C157.814 10.2924 160.613 10.6093 162.215 10.3732C163.818 10.1369 165.904 9.56693 166.667 9.10053C167.431 8.63412 167.672 8.69234 168.181 8.17414C168.779 8.71182 168.83 8.84144 169.949 9.15233C171.069 9.46323 174.401 9.85193 175.724 9.74834C177.047 9.64475 178.396 9.33374 178.828 8.99694C179.261 8.66014 179.719 7.59772 180.685 7.72721C181.652 7.85682 183.815 9.48923 184.705 9.28193C185.595 9.07462 186.511 8.53053 187.325 7.72721C188.14 6.92389 190.251 4.54004 191.778 4.48824C193.304 4.43644 195.034 4.79914 195.975 4.87695C196.917 4.95465 200.351 5.16196 201.674 5.11016C202.997 5.05837 205.134 4.87696 205.999 4.72145C206.864 4.56594 208.359 4.18378 208.804 3.98301C209.249 3.78224 209.873 3.42595 210.101 3.24454C210.33 3.06313 210.566 2.76519 210.648 2.63558C210.731 2.50597 210.783 2.2794 210.798 2.19739C210.813 2.11538 210.832 1.9915 210.832 1.9915L210.825 1.778L147.739 1.43547L147.832 1.72983Z" fill="#E2E2E2"/>
<path d="M160.913 10.2712C164.731 9.53474 166.81 8.99322 168.041 6.78531C169.271 4.5774 168.208 2.74442 169.312 2.41112C170.416 2.07782 171.766 3.16103 171.766 4.2441C171.766 5.32718 171.234 7.70177 172.093 8.07671C172.952 8.45166 175.508 8.78496 176.602 8.6599C177.697 8.53496 179.946 8.11838 179.946 8.11838C179.946 8.11838 178.99 8.86931 178.098 9.32697C177.206 9.78462 172.952 9.743 172.952 9.743L169.435 8.99308L168.181 8.17401C168.181 8.17401 167.084 8.94992 166.459 9.21381C165.835 9.47769 162.827 10.2712 162.827 10.2712L160.913 10.2712Z" fill="#A2A2A5"/>
<path d="M160.75 10.8395C158.14 10.8395 155.287 10.0869 152.931 8.75288C149.872 7.02106 147.869 4.46513 147.29 1.55598C147.24 1.30341 147.401 1.05715 147.648 1.00606C147.896 0.95531 148.138 1.11817 148.188 1.37073C148.713 4.00807 150.555 6.34012 153.376 7.9372C155.892 9.36209 159.005 10.0844 161.701 9.86907C164.999 9.60589 167.679 8.43545 169.053 6.65801C169.776 5.72275 170.073 4.67969 169.91 3.64165C169.87 3.3871 170.04 3.14794 170.29 3.10723C170.54 3.06709 170.775 3.23999 170.815 3.49455C171.019 4.79671 170.659 6.09022 169.773 7.23547C168.241 9.21695 165.324 10.5161 161.772 10.7994C161.437 10.8262 161.096 10.8395 160.75 10.8395Z" fill="black"/>
<path d="M174.663 10.2537C171.929 10.2537 168.581 9.62201 167.692 8.56052C167.528 8.36453 167.551 8.06994 167.743 7.90265C167.936 7.73536 168.225 7.75858 168.389 7.95469C168.93 8.60099 171.725 9.32043 174.662 9.32043L174.687 9.32043C176.818 9.3174 178.425 8.91457 178.985 8.24284C180.264 6.70782 181.796 7.51126 183.027 8.15651C183.793 8.55829 184.517 8.93756 185.073 8.77587C185.617 8.61721 186.406 7.87269 187.24 7.0843C188.871 5.54322 190.9 3.62486 193.151 4.0208C200.178 5.2567 208.413 4.57109 210.097 2.60992C210.368 2.29447 210.441 1.97471 210.326 1.60349C210.25 1.35769 210.384 1.09554 210.625 1.01831C210.867 0.940851 211.124 1.07758 211.2 1.32338C211.411 2.00642 211.268 2.66368 210.787 3.22423C208.657 5.70513 199.701 6.11999 192.995 4.94044C191.192 4.62359 189.346 6.36719 187.863 7.76851C186.906 8.67239 186.08 9.45307 185.325 9.67309C184.42 9.93686 183.499 9.45355 182.607 8.98621C181.296 8.29849 180.452 7.92378 179.683 8.84667C178.667 10.0662 176.117 10.2516 174.688 10.2537L174.663 10.2537Z" fill="black"/>
<path d="M9.50615 20.7954C8.80654 20.7954 8.09795 20.6024 7.4413 20.1613C7.23009 20.0195 7.1717 19.73 7.3111 19.5149C7.45026 19.2997 7.73444 19.2402 7.94588 19.3823C9.48861 20.4185 11.431 19.6462 12.4174 18.3007C13.3613 17.0131 13.6158 14.9906 11.499 13.1757C10.2539 12.1082 8.92246 11.6553 7.54214 11.83C5.55361 12.0816 3.82875 13.6091 2.87761 14.9547C2.72974 15.1638 2.44339 15.2113 2.23813 15.0607C2.03276 14.9101 1.98612 14.6186 2.13399 14.4094C3.51225 12.4594 5.49172 11.149 7.42916 10.9039C9.07327 10.6958 10.641 11.22 12.0892 12.4618C14.6964 14.6971 14.291 17.305 13.1517 18.859C12.3194 19.9942 10.9316 20.7953 9.50615 20.7954Z" fill="black"/>
<path d="M283.518 12.8847C280.456 12.8847 277.155 10.9569 274.172 9.21481C272.679 8.34277 271.268 7.51915 269.961 6.96069C268.437 6.30961 265.052 6.71908 261.133 7.19319C259.197 7.42756 257.194 7.66986 255.132 7.82502C249.031 8.28384 238.049 7.49943 235.583 1.64741C235.483 1.41059 235.591 1.13619 235.824 1.03457C236.056 0.932963 236.325 1.04252 236.425 1.27934C237.086 2.84819 238.956 4.96976 244.106 6.16762C248.655 7.22527 253.285 7.02799 255.064 6.8943C257.106 6.74066 259.099 6.49966 261.026 6.26657C265.24 5.75677 268.568 5.35406 270.315 6.1001C271.675 6.68095 273.109 7.51846 274.628 8.40519C278.361 10.5855 282.222 12.8401 285.457 11.6098C287.322 10.9009 287.902 9.10001 287.512 7.6876C287.004 5.84939 285.371 5.4833 284.126 5.72899C283.878 5.7774 283.637 5.61256 283.589 5.35952C283.541 5.10649 283.704 4.86162 283.952 4.81262C285.052 4.59587 286.065 4.76364 286.879 5.29818C287.608 5.77672 288.146 6.53547 288.394 7.4348C288.898 9.25808 288.161 11.578 285.777 12.4842C285.045 12.7624 284.289 12.8848 283.518 12.8848L283.518 12.8847Z" fill="black"/>
<path d="M289.774 11.8181C288.809 11.8181 287.94 11.5785 287.169 11.0984C286.953 10.964 286.885 10.6768 287.017 10.4569C287.149 10.2371 287.431 10.1676 287.647 10.3022C290.3 11.9546 294.217 9.70771 297.036 7.53189C298.26 6.58671 299.747 7.08053 301.468 7.65228C303.076 8.18612 304.897 8.79113 307 8.4513C310.214 7.93181 313.645 5.76227 314.492 3.71383C314.799 2.97351 314.747 2.32558 314.336 1.73283C314.19 1.52237 314.239 1.2312 314.445 1.08234C314.652 0.933482 314.938 0.983536 315.084 1.19387C315.677 2.04724 315.764 3.04399 315.337 4.07643C314.365 6.42375 310.69 8.79986 307.144 9.37313C304.823 9.74796 302.806 9.07812 301.184 8.53973C299.646 8.02899 298.432 7.62544 297.589 8.27571C294.534 10.6343 291.918 11.8183 289.774 11.8183L289.774 11.8181Z" fill="black"/>
<path d="M315.957 23.6645C315.013 23.6645 314.016 23.5056 312.983 23.1505C309.013 21.7859 307.093 19.0676 306.181 17.0276C304.784 13.9024 304.912 10.5881 305.623 8.83105C305.719 8.59283 305.987 8.47908 306.221 8.57731C306.455 8.67553 306.566 8.9483 306.47 9.18652C305.832 10.7634 305.731 13.7687 307.015 16.6409C307.852 18.513 309.617 21.0086 313.276 22.2662C314.204 22.5854 315.101 22.7282 315.948 22.7283C318.757 22.7285 321.04 21.1617 322.258 19.2446C323.652 17.0521 323.619 14.6094 322.174 13.0216C322.002 12.8325 322.013 12.5374 322.198 12.3621C322.384 12.1869 322.674 12.1982 322.846 12.3871C324.585 14.2982 324.656 17.1889 323.028 19.7516C321.66 21.9039 319.099 23.6644 315.957 23.6644L315.957 23.6645Z" fill="black"/>
<path d="M334.102 29.6921C333.684 29.6921 333.254 29.6507 332.811 29.5621C330.51 29.101 329.495 26.9254 328.679 25.1774C328.016 23.7557 327.575 22.8903 326.923 23.0046C325.704 23.2172 324.564 22.8888 323.795 22.1029C322.911 21.2005 322.58 19.7962 322.862 18.1489C322.905 17.8949 323.143 17.7254 323.392 17.7692C323.641 17.8134 323.808 18.0552 323.764 18.309C323.535 19.649 323.776 20.7623 324.444 21.4439C325.008 22.0203 325.834 22.2482 326.768 22.0849C328.14 21.8448 328.803 23.2695 329.507 24.777C330.272 26.4171 331.139 28.2762 332.988 28.6465C335.91 29.232 338.252 27.4198 339.191 25.4882C339.756 24.3255 339.961 22.7233 338.843 21.7133C338.653 21.5424 338.636 21.2475 338.804 21.0546C338.971 20.8618 339.261 20.8439 339.45 21.0149C340.71 22.1518 340.925 24.0246 340.012 25.9024C339.065 27.8498 336.886 29.6923 334.102 29.6925L334.102 29.6921Z" fill="black"/>
<path d="M339.651 63.1583C338.003 63.1583 336.445 62.4613 335.156 61.1226C332.939 58.8191 331.966 55.0112 332.791 51.8625C333.298 49.9277 334.389 48.2443 335.352 46.7592C336.893 44.381 337.706 42.9764 336.489 41.7624C333.76 39.0402 332.276 33.2479 334.416 28.9645C334.531 28.7348 334.806 28.6433 335.032 28.7602C335.258 28.8771 335.347 29.158 335.233 29.3877C333.304 33.2479 334.685 38.6561 337.13 41.0957C338.946 42.9072 337.572 45.0281 336.117 47.2733C335.193 48.6992 334.145 50.3152 333.677 52.1033C332.931 54.9494 333.808 58.3894 335.811 60.4692C337.249 61.9638 339.067 62.5299 340.931 62.0632C341.764 61.8546 342.349 61.4441 342.67 60.8431C343.269 59.722 342.861 58.2122 342.658 57.6151C342.559 57.3225 342.382 57.1196 342.119 56.995C341.355 56.6343 340.068 56.996 339.637 57.1659C339.401 57.2586 339.135 57.1393 339.044 56.8989C338.953 56.6585 339.07 56.3884 339.306 56.2954C339.384 56.2646 341.235 55.5485 342.504 56.1484C342.999 56.3818 343.342 56.7726 343.524 57.3099C343.767 58.024 344.248 59.8415 343.474 61.2891C343.025 62.1303 342.243 62.6956 341.15 62.9694C340.645 63.0957 340.144 63.1583 339.651 63.1583Z" fill="black"/>
<path d="M344.956 93.0867C344.098 93.0867 343.284 92.6863 342.757 91.9824C342.178 91.2098 342.298 89.918 342.464 88.1299C342.557 87.1287 342.663 85.9941 342.663 84.7538C342.663 83.7097 342.534 82.6625 342.409 81.6496C342.299 80.756 342.185 79.8321 342.163 78.9268C342.157 78.6838 342.237 78.2016 342.379 77.3702C342.505 76.6282 342.663 75.7048 342.663 75.3183C342.663 74.894 342.693 74.3532 342.727 73.7269C342.813 72.1747 342.931 70.0491 342.629 68.3941C342.411 67.2001 341.868 66.2043 341.343 65.2411C340.873 64.3801 340.43 63.5666 340.288 62.7076C340.246 62.4535 340.414 62.2127 340.663 62.1697C340.913 62.1267 341.149 62.2982 341.191 62.5523C341.307 63.2535 341.714 63.999 342.144 64.7881C342.678 65.7686 343.284 66.8799 343.53 68.2233C343.852 69.989 343.731 72.1798 343.642 73.7794C343.608 74.3916 343.579 74.9202 343.579 75.3182C343.579 75.785 343.428 76.672 343.281 77.5298C343.19 78.0695 343.075 78.7411 343.079 78.9039C343.099 79.7623 343.205 80.6226 343.318 81.5333C343.446 82.5746 343.579 83.6514 343.579 84.7538C343.579 86.0382 343.471 87.1963 343.376 88.2179C343.24 89.6753 343.124 90.9341 343.485 91.4161C343.982 92.0797 344.734 92.2182 345.272 92.1264C345.783 92.0392 346.164 91.7561 346.29 91.3693C346.369 91.1247 346.629 90.9919 346.869 91.0731C347.109 91.1542 347.239 91.4182 347.159 91.6628C346.925 92.384 346.276 92.9014 345.424 93.0468C345.267 93.0735 345.111 93.0865 344.956 93.0865L344.956 93.0867Z" fill="black"/>
<path d="M25.5914 37.0389C25.1637 37.0389 24.721 36.9897 24.2668 36.8898C24.0196 36.8355 23.8623 36.5871 23.9157 36.3352C23.9691 36.0834 24.2131 35.9235 24.4602 35.9776C26.0655 36.3306 27.4892 35.9383 28.4694 34.8728C29.4441 33.8134 29.8191 32.2178 29.4247 30.8079C29.3554 30.56 29.4964 30.3018 29.7397 30.2312C29.9832 30.1605 30.2366 30.3043 30.3059 30.552C30.794 32.2972 30.3465 34.1973 29.138 35.5108C28.2132 36.5161 26.9833 37.0389 25.5914 37.0389Z" fill="black"/>
</svg>
