<svg width="107" height="108" viewBox="0 0 107 108" fill="none" xmlns="http://www.w3.org/2000/svg">
<path d="M24.7147 24.9329C25.9081 26.8163 26.7271 31.6608 29.795 34.2241C31.8124 35.9101 36.8936 37.1248 38.4321 38.6637L38.4422 38.6536C36.9047 37.1137 35.6912 32.0275 34.0069 30.0081C31.4461 26.9382 26.6063 26.1174 24.7248 24.9229" fill="#292524"/>
<path d="M56.951 57.1773C56.951 57.1773 50.5949 39.5236 63.7046 31.7965C70.278 27.9209 78.4554 34.3205 85.3135 28.631C92.0047 23.0805 91.0488 9.5521 96.1804 4.41451C101.162 -0.572009 110.584 8.72622 101.691 11.5292" stroke="#292524" stroke-width="3" stroke-miterlimit="10" stroke-linecap="round"/>
<path d="M51.3918 51.6255C50.6512 50.0936 47.7695 41.8448 50.0204 33.5699C52.3346 25.0311 59.4564 17.8952 46.39 11.96" stroke="#292524" stroke-width="3" stroke-miterlimit="10" stroke-linecap="round"/>
<path d="M54.0441 6.02242C54.0441 2.16595 46.9414 2.23242 46.2119 5.42919C45.5489 8.3369 48.828 9.03991 51.6625 10.2455C56.4751 12.2911 59.6808 14.3195 60.1004 20.2095C60.4596 25.2403 56.0756 30.4716 53.5088 36.7402" stroke="#292524" stroke-width="3" stroke-miterlimit="10" stroke-linecap="round"/>
<path d="M63.773 10.5334C66.8218 11.8709 70.2026 9.59874 69.1058 5.93464C67.8722 1.82134 62.947 2.8547 60.683 5.91752C56.6633 11.3563 62.0816 16.9743 66.8872 15.1835C70.6342 13.7866 74.5101 11.6101 78.4332 15.6519C82.8393 20.1912 75.5495 28.2979 71.1705 23.3698C69.5093 21.5005 70.9874 18.3692 74.2897 18.4558" stroke="#292524" stroke-width="3" stroke-miterlimit="10" stroke-linecap="round"/>
<path d="M46.2199 46.4347C44.3082 40.6243 45.5045 27.515 37.6492 23.4893C26.0961 17.5701 10.5344 10.7153 2.01294 2.18555" stroke="#292524" stroke-width="3" stroke-miterlimit="10" stroke-linecap="round"/>
<path d="M37.5296 10.2151C28.8291 10.5465 33.4173 2.54446 38.4422 3.57984C42.1792 4.34932 44.0104 6.49158 42.8875 9.87669C41.4678 14.1582 38.1413 11.9656 37.3636 17.1827C36.4862 23.0656 45.4584 24.3568 46.8137 19.0903C47.9105 14.8249 42.964 14.6316 41.7556 17.3479" stroke="#292524" stroke-width="3" stroke-miterlimit="10" stroke-linecap="round"/>
<path d="M15.7837 4.06873C21.6196 1.76331 21.4928 7.55456 21.6045 9.25165C21.8913 13.6117 25.4119 15.2272 28.2584 13.4425C31.7026 11.2821 32.6505 3.5863 25.8506 2.99609" stroke="#292524" stroke-width="3" stroke-miterlimit="10" stroke-linecap="round"/>
<path d="M88.8644 4.74291C81.3069 0.440263 77.3515 9.38598 80.0562 12.8789C84.6283 18.7859 92.0852 13.4278 91.6143 9.85734" stroke="#292524" stroke-width="3" stroke-miterlimit="10" stroke-linecap="round"/>
<path d="M56.938 57.189C56.938 57.189 39.3015 50.8277 31.582 63.9501C27.7092 70.529 34.1026 78.7153 28.4186 85.5802C22.8735 92.2779 9.3583 91.3211 4.22572 96.4577C-0.75593 101.444 8.53322 110.875 11.3334 101.974" stroke="#292524" stroke-width="3" stroke-miterlimit="10" stroke-linecap="round"/>
<path d="M51.3918 51.6258C49.8614 50.8845 41.6207 48 33.3539 50.252C24.8234 52.5685 17.6945 59.6983 11.765 46.6191" stroke="#292524" stroke-width="3" stroke-miterlimit="10" stroke-linecap="round"/>
<path d="M5.83363 54.2799C1.98193 54.2799 2.04734 47.1703 5.24099 46.4401C8.14687 45.7763 8.84817 49.0587 10.0526 51.8959C12.0962 56.7132 14.1226 59.9211 20.0068 60.3421C25.0328 60.7016 30.2589 56.3134 36.5214 53.7441" stroke="#292524" stroke-width="3" stroke-miterlimit="10" stroke-linecap="round"/>
<path d="M10.3403 64.0196C11.6755 67.0713 9.4055 70.4554 5.74498 69.3576C1.6357 68.1228 2.66805 63.1927 5.72788 60.9266C11.1613 56.9029 16.7739 62.3266 14.9848 67.1368C13.5903 70.8875 11.4149 74.7672 15.4527 78.6931C19.9876 83.1045 28.0864 75.8076 23.1632 71.4233C21.2957 69.7615 18.1684 71.241 18.254 74.5456" stroke="#292524" stroke-width="3" stroke-miterlimit="10" stroke-linecap="round"/>
<path d="M46.206 46.4464C40.4013 44.5328 27.3047 45.7313 23.283 37.8683C17.3696 26.308 10.5214 10.728 2 2.19824" stroke="#292524" stroke-width="3" stroke-miterlimit="10" stroke-linecap="round"/>
<path d="M10.0214 37.7488C10.3534 29.0398 2.35824 33.6335 3.3926 38.6633C4.16133 42.404 6.30149 44.237 9.6843 43.113C13.9606 41.6919 11.7701 38.3622 16.9822 37.5837C22.8604 36.7054 24.1503 45.6854 18.8879 47.042C14.6277 48.1409 14.4335 43.1886 17.1482 41.979" stroke="#292524" stroke-width="3" stroke-miterlimit="10" stroke-linecap="round"/>
<path d="M3.88162 15.9775C1.57945 21.8191 7.36404 21.6922 9.05947 21.804C13.4153 22.0911 15.0292 25.6152 13.2462 28.4645C11.088 31.912 3.39966 32.8608 2.81104 26.0533" stroke="#292524" stroke-width="3" stroke-miterlimit="10" stroke-linecap="round"/>
<path d="M4.55477 89.1348C0.256325 81.5699 9.19332 77.6107 12.6838 80.318C18.5841 84.8946 13.2322 92.3578 9.65918 91.8874" stroke="#292524" stroke-width="3" stroke-miterlimit="10" stroke-linecap="round"/>
</svg>
